<svg width="37" height="39" viewBox="0 0 37 39" fill="none" xmlns="http://www.w3.org/2000/svg">
<g clip-path="url(#clip0)">
<path fill-rule="evenodd" clip-rule="evenodd" d="M20.1097 24.4158H16.5522V23.0705C16.335 23.0347 16.1202 22.9943 15.9067 22.9454L15.4023 24.1896L12.1071 22.8478L12.6055 21.6168C12.3705 21.4739 12.1403 21.3227 11.9172 21.1644L10.9822 22.1002L8.46774 19.5774L9.385 18.6547C9.2343 18.4464 9.09072 18.2309 8.95307 18.0106L7.75577 18.5059L6.40065 15.2057L7.59083 14.7152C7.53743 14.4771 7.48878 14.2354 7.452 13.9913H6.16333V10.4233H7.47573C7.51608 10.1851 7.5671 9.94703 7.62168 9.7125L6.40184 9.20889L7.75696 5.90869L9.02308 6.43373C9.15717 6.223 9.29719 6.01941 9.44552 5.8194L8.46893 4.8372L10.9834 2.31443L11.9991 3.33235C12.2103 3.18591 12.4275 3.04423 12.6494 2.91208L12.1059 1.56676L15.4023 0.225014L15.9589 1.59772C16.1535 1.55367 16.3516 1.51557 16.5522 1.48461V0H20.1097V1.48104C20.3102 1.51319 20.5084 1.55128 20.7053 1.59414L21.2595 0.225014L24.5547 1.56676L24.0148 2.90256C24.2391 3.03709 24.4562 3.17757 24.6698 3.3252L25.6785 2.31562L28.1929 4.83839L27.227 5.80988C27.3753 6.01108 27.5177 6.21705 27.6518 6.42896L28.9049 5.90988L30.2588 9.2077L29.0532 9.70416C29.1102 9.94227 29.1612 10.1804 29.2039 10.4221H30.4985V13.9913H29.2265C29.1873 14.2366 29.1398 14.4806 29.0852 14.7223L30.2588 15.2057L28.9037 18.5059L27.7206 18.0166C27.5818 18.238 27.437 18.4559 27.2828 18.6654L28.1917 19.5774L25.6773 22.1002L24.7505 21.1715C24.5263 21.3299 24.2961 21.4823 24.0587 21.6239L24.5535 22.8478L21.2583 24.1896L20.7564 22.949C20.5428 22.9978 20.3256 23.0383 20.1097 23.074V24.4158ZM18.3297 4.25383C22.706 4.25383 26.2575 7.81833 26.2575 12.2079C26.2575 16.5963 22.7048 20.1608 18.3297 20.1608C13.9559 20.1608 10.4031 16.5963 10.4031 12.2079C10.4031 7.81833 13.9559 4.25383 18.3297 4.25383Z" fill="black"/>
<path fill-rule="evenodd" clip-rule="evenodd" d="M7.88865 20.6715C9.70536 22.7419 12.1011 24.3003 14.8399 25.0825L7.51605 38.8381L6.12533 31.4341L0 32.777L7.88865 20.6715Z" fill="black"/>
<path fill-rule="evenodd" clip-rule="evenodd" d="M28.7886 20.2881L37 32.958L30.8783 31.5984L29.4686 39L22.1187 25.1111C24.7909 24.1681 27.0941 22.4716 28.7886 20.2881Z" fill="black"/>
<path fill-rule="evenodd" clip-rule="evenodd" d="M18.4614 4.84076L20.1002 9.90059H25.4032L21.1123 13.0294L22.7511 18.0892L18.4602 14.9616L14.1682 18.0892L15.807 13.0294L11.5173 9.90059H16.8215L18.4614 4.84076Z" fill="black"/>
</g>
<defs>
<clipPath id="clip0">
<path d="M0 0H37V39H0V0Z" fill="white"/>
</clipPath>
</defs>
</svg>
