<svg width="130" height="65" viewBox="0 0 130 65" fill="none"
  xmlns="http://www.w3.org/2000/svg">
  <path d="M54.2316 9.4411L50.8002 15.5686H47.3688L43.9374 9.4411V19H39.5256V1.843H44.1825L49.0845 10.9117L53.9865 1.843H58.6434V19H54.2316V9.4411ZM77.0355 19H63.4324V1.843H77.0355V5.2744H67.8442V8.58325H75.0747V12.0146H67.8442V15.5686H77.0355V19ZM89.1622 19H84.7504V5.2744H79.6033V1.843H94.3093V5.2744H89.1622V19ZM73.7027 31.299L78.4821 40H73.8252L70.0262 33.0146H67.8203V40H63.4085V22.843H67.8203V29.5833H70.0262L72.4772 24.9264C72.8367 24.2401 73.2778 23.6845 73.8007 23.2597C74.3399 22.8185 75.0426 22.5979 75.9086 22.5979C76.1864 22.5979 76.456 22.6142 76.7174 22.6469C76.9788 22.6633 77.2158 22.6878 77.4282 22.7205C77.6733 22.7695 77.9021 22.8103 78.1145 22.843V26.1519H77.1341C76.889 26.1519 76.6684 26.2336 76.4723 26.397C76.2762 26.544 76.1292 26.7074 76.0311 26.8872L73.7027 31.299ZM92.8157 27.4999C92.8157 26.5195 92.3255 26.0293 91.3451 26.0293H87.1784C86.198 26.0293 85.7078 26.5195 85.7078 27.4999V35.3431C85.7078 36.3235 86.198 36.8137 87.1784 36.8137H91.3451C92.3255 36.8137 92.8157 36.3235 92.8157 35.3431V27.4999ZM97.2275 35.3431C97.2275 37.0588 96.8353 38.3088 96.051 39.0931C95.283 39.8611 94.0412 40.2451 92.3255 40.2451H86.198C84.4823 40.2451 83.2323 39.8611 82.448 39.0931C81.68 38.3088 81.296 37.0588 81.296 35.3431V27.4999C81.296 25.7842 81.68 24.5424 82.448 23.7744C83.2323 22.9901 84.4823 22.5979 86.198 22.5979H92.3255C94.0412 22.5979 95.283 22.9901 96.051 23.7744C96.8353 24.5424 97.2275 25.7842 97.2275 27.4999V35.3431ZM116.234 30.4411L112.803 36.5686H109.371L105.94 30.4411V40H101.528V22.843H106.185L111.087 31.9117L115.989 22.843H120.646V40H116.234V30.4411ZM54.4767 61H50.0649V47.2744H43.9374V61H39.5256V43.843H54.4767V61ZM64.4147 57.446C64.333 58.6225 63.9572 59.5539 63.2873 60.2402C62.6173 60.9101 61.7268 61.2451 60.6157 61.2451C60.3052 61.2451 59.9948 61.2288 59.6843 61.1961C59.3902 61.1797 59.1206 61.1552 58.8755 61.1226C58.5813 61.0899 58.3036 61.049 58.0421 61V57.6912H59.1451C59.4555 57.6912 59.7088 57.5849 59.9049 57.3725C60.1173 57.1601 60.2317 56.8987 60.248 56.5882L60.9833 43.843H74.5864V61H70.1746V47.2744H65.0275L64.4147 57.446ZM92.9718 61H79.3687V43.843H92.9718V47.2744H83.7805V50.5833H91.011V54.0146H83.7805V57.5686H92.9718V61ZM107.059 52.299L111.839 61H107.182L103.383 54.0146H101.177V61H96.7651V43.843H101.177V50.5833H103.383L105.834 45.9264C106.193 45.2401 106.634 44.6845 107.157 44.2597C107.697 43.8185 108.399 43.5979 109.265 43.5979C109.543 43.5979 109.813 43.6142 110.074 43.6469C110.335 43.6633 110.572 43.6878 110.785 43.7205C111.03 43.7695 111.259 43.8103 111.471 43.843V47.1519H110.491C110.246 47.1519 110.025 47.2336 109.829 47.397C109.633 47.544 109.486 47.7074 109.388 47.8872L107.059 52.299ZM119.309 61.2451C117.708 61.2451 116.532 60.8693 115.78 60.1176C115.028 59.366 114.653 58.1895 114.653 56.5882V48.745C114.653 47.0293 115.037 45.7875 115.805 45.0195C116.589 44.2352 117.839 43.843 119.555 43.843H128.378V47.2744H120.535C119.555 47.2744 119.064 47.7646 119.064 48.745V56.5882C119.064 56.964 119.171 57.2663 119.383 57.4951C119.612 57.7075 119.914 57.8137 120.29 57.8137C120.6 57.8137 120.96 57.8137 121.368 57.8137C121.777 57.7974 122.202 57.781 122.643 57.7647C123.084 57.7483 123.525 57.732 123.966 57.7157C124.424 57.6993 124.865 57.6748 125.29 57.6421C126.287 57.5768 127.316 57.5114 128.378 57.446V60.7549C127.283 60.8529 126.197 60.9346 125.118 61C124.187 61.0654 123.198 61.1225 122.153 61.1716C121.123 61.2206 120.175 61.2451 119.309 61.2451Z" fill="black"/>
  <path d="M11.2875 23.865L21.0628 40.7962H1.51224L11.2875 23.865Z" fill="black"/>
  <path d="M47.4075 23.865L57.1828 40.7962H37.6322L47.4075 23.865Z" fill="black"/>
  <path d="M29.3475 40.635L19.0137 23.7037L39.6813 23.7037L29.3475 40.635Z" fill="black"/>
</svg>
