<svg width="179" height="75" viewBox="0 0 179 75" fill="none"
  xmlns="http://www.w3.org/2000/svg">
  <path d="M68.3662 10.1583L64.9348 16.2858H61.5034L58.072 10.1583V19.7172H53.6602V2.56021H58.3171L63.2191 11.6289L68.1211 2.56021H72.778V19.7172H68.3662V10.1583ZM91.17 19.7172H77.567V2.56021H91.17V5.99161H81.9788V9.30046H89.2092V12.7319H81.9788V16.2858H91.17V19.7172ZM103.297 19.7172H98.885V5.99161H93.7379V2.56021H108.444V5.99161H103.297V19.7172ZM90.0432 24.3151C90.4517 24.3151 91.187 24.3968 92.2491 24.5602V27.8691H91.2687C91.0236 27.8691 90.803 27.9508 90.6069 28.1142C90.4108 28.2612 90.2638 28.4246 90.1657 28.6044L87.8373 33.0162L92.6167 41.7172H87.9598L84.1608 34.7319H81.9549V41.7172H77.5431V24.5602H81.9549V31.3005H84.1608L86.6118 26.6436C86.9712 25.9573 87.4124 25.4017 87.9353 24.9769C88.4745 24.5357 89.1771 24.3151 90.0432 24.3151ZM106.95 29.2171C106.95 28.2367 106.46 27.7465 105.48 27.7465H101.313C100.333 27.7465 99.8424 28.2367 99.8424 29.2171V37.0603C99.8424 38.0407 100.333 38.5309 101.313 38.5309H105.48C106.46 38.5309 106.95 38.0407 106.95 37.0603V29.2171ZM111.362 37.0603C111.362 38.776 110.97 40.026 110.186 40.8103C109.418 41.5783 108.176 41.9623 106.46 41.9623H100.333C98.6169 41.9623 97.3669 41.5783 96.5825 40.8103C95.8146 40.026 95.4306 38.776 95.4306 37.0603V29.2171C95.4306 27.5014 95.8146 26.2596 96.5825 25.4916C97.3669 24.7073 98.6169 24.3151 100.333 24.3151H106.46C108.176 24.3151 109.418 24.7073 110.186 25.4916C110.97 26.2596 111.362 27.5014 111.362 29.2171V37.0603ZM130.369 32.1583L126.937 38.2858H123.506L120.075 32.1583V41.7172H115.663V24.5602H120.32L125.222 33.6289L130.124 24.5602H134.781V41.7172H130.369V32.1583ZM68.6113 63.7172H64.1995V49.9916H58.072V63.7172H53.6602V46.5602H68.6113V63.7172ZM78.5493 60.1633C78.4676 61.3397 78.0918 62.2711 77.4219 62.9574C76.7519 63.6273 75.9267 63.9623 74.9463 63.9623C73.9659 63.9623 73.0427 63.8806 72.1767 63.7172V60.4084H73.2797C73.5901 60.4084 73.8434 60.3022 74.0395 60.0897C74.2519 59.8773 74.3663 59.6159 74.3826 59.3054L75.1179 46.5602H88.721V63.7172H84.3092V49.9916H79.1621L78.5493 60.1633ZM107.106 63.7172H93.5033V46.5602H107.106V49.9916H97.9151V53.3005H105.146V56.7319H97.9151V60.2858H107.106V63.7172ZM123.4 46.3151C123.808 46.3151 124.544 46.3968 125.606 46.5602V49.8691H124.625C124.38 49.8691 124.16 49.9508 123.963 50.1142C123.767 50.2612 123.62 50.4246 123.522 50.6044L121.194 55.0162L125.973 63.7172H121.316L117.517 56.7319H115.311V63.7172H110.9V46.5602H115.311V53.3005H117.517L119.968 48.6436C120.328 47.9573 120.769 47.4017 121.292 46.9769C121.831 46.5357 122.534 46.3151 123.4 46.3151ZM142.513 63.4721C138.869 63.7989 135.846 63.9623 133.444 63.9623C131.843 63.9623 130.666 63.5865 129.915 62.8349C129.163 62.0832 128.787 60.9067 128.787 59.3054V51.4622C128.787 49.7465 129.171 48.5047 129.939 47.7367C130.723 46.9524 131.973 46.5602 133.689 46.5602H142.513V49.9916H134.67C133.689 49.9916 133.199 50.4818 133.199 51.4622V59.3054C133.199 59.6812 133.305 59.9835 133.518 60.2123C133.746 60.4247 134.032 60.5309 134.375 60.5309C134.719 60.5309 135.094 60.5309 135.503 60.5309C135.911 60.5146 136.336 60.4982 136.777 60.4819C137.219 60.4656 137.66 60.4492 138.101 60.4329C138.558 60.4165 139.139 60.3839 139.841 60.3348C140.56 60.2858 141.451 60.2286 142.513 60.1633V63.4721Z" fill="black"/>
  <path d="M15.48 27.6412L28.8861 48.3257H2.07393L15.48 27.6412Z" fill="black"/>
  <path d="M65.016 27.6412L78.4221 48.3257H51.6099L65.016 27.6412Z" fill="black"/>
  <path d="M40.2481 46.5608L26.076 25.8764L54.4202 25.8764L40.2481 46.5608Z" fill="black"/>
</svg>
