<svg width="130" height="65" viewBox="0 0 130 65" fill="none" xmlns="http://www.w3.org/2000/svg">
<path d="M54.2316 9.4411L50.8002 15.5686H47.3688L43.9374 9.4411V19H39.5256V1.843H44.1825L49.0845 10.9117L53.9865 1.843H58.6434V19H54.2316V9.4411ZM77.0355 19H63.4324V1.843H77.0355V5.2744H67.8442V8.58325H75.0747V12.0146H67.8442V15.5686H77.0355V19ZM89.1622 19H84.7504V5.2744H79.6033V1.843H94.3093V5.2744H89.1622V19ZM75.9086 23.5979C76.3171 23.5979 77.0524 23.6796 78.1145 23.843V27.1519H77.1341C76.889 27.1519 76.6684 27.2336 76.4723 27.397C76.2762 27.544 76.1292 27.7074 76.0311 27.8872L73.7027 32.299L78.4821 41H73.8252L70.0262 34.0146H67.8203V41H63.4085V23.843H67.8203V30.5833H70.0262L72.4772 25.9264C72.8367 25.2401 73.2778 24.6845 73.8007 24.2597C74.3399 23.8185 75.0426 23.5979 75.9086 23.5979ZM92.8157 28.4999C92.8157 27.5195 92.3255 27.0293 91.3451 27.0293H87.1784C86.198 27.0293 85.7078 27.5195 85.7078 28.4999V36.3431C85.7078 37.3235 86.198 37.8137 87.1784 37.8137H91.3451C92.3255 37.8137 92.8157 37.3235 92.8157 36.3431V28.4999ZM97.2275 36.3431C97.2275 38.0588 96.8353 39.3088 96.051 40.0931C95.283 40.8611 94.0412 41.2451 92.3255 41.2451H86.198C84.4823 41.2451 83.2323 40.8611 82.448 40.0931C81.68 39.3088 81.296 38.0588 81.296 36.3431V28.4999C81.296 26.7842 81.68 25.5424 82.448 24.7744C83.2323 23.9901 84.4823 23.5979 86.198 23.5979H92.3255C94.0412 23.5979 95.283 23.9901 96.051 24.7744C96.8353 25.5424 97.2275 26.7842 97.2275 28.4999V36.3431ZM116.234 31.4411L112.803 37.5686H109.371L105.94 31.4411V41H101.528V23.843H106.185L111.087 32.9117L115.989 23.843H120.646V41H116.234V31.4411ZM54.4767 63H50.0649V49.2744H43.9374V63H39.5256V45.843H54.4767V63ZM64.4147 59.446C64.333 60.6225 63.9572 61.5539 63.2873 62.2402C62.6173 62.9101 61.7922 63.2451 60.8118 63.2451C59.8314 63.2451 58.9081 63.1634 58.0421 63V59.6912H59.1451C59.4555 59.6912 59.7088 59.5849 59.9049 59.3725C60.1173 59.1601 60.2317 58.8987 60.248 58.5882L60.9833 45.843H74.5864V63H70.1746V49.2744H65.0275L64.4147 59.446ZM92.9718 63H79.3687V45.843H92.9718V49.2744H83.7805V52.5833H91.011V56.0146H83.7805V59.5686H92.9718V63ZM109.265 45.5979C109.674 45.5979 110.409 45.6796 111.471 45.843V49.1519H110.491C110.246 49.1519 110.025 49.2336 109.829 49.397C109.633 49.544 109.486 49.7074 109.388 49.8872L107.059 54.299L111.839 63H107.182L103.383 56.0146H101.177V63H96.7651V45.843H101.177V52.5833H103.383L105.834 47.9264C106.193 47.2401 106.634 46.6845 107.157 46.2597C107.697 45.8185 108.399 45.5979 109.265 45.5979ZM128.378 62.7549C124.734 63.0817 121.711 63.2451 119.309 63.2451C117.708 63.2451 116.532 62.8693 115.78 62.1176C115.028 61.366 114.653 60.1895 114.653 58.5882V50.745C114.653 49.0293 115.037 47.7875 115.805 47.0195C116.589 46.2352 117.839 45.843 119.555 45.843H128.378V49.2744H120.535C119.555 49.2744 119.064 49.7646 119.064 50.745V58.5882C119.064 58.964 119.171 59.2663 119.383 59.4951C119.612 59.7075 119.898 59.8137 120.241 59.8137C120.584 59.8137 120.96 59.8137 121.368 59.8137C121.777 59.7974 122.202 59.781 122.643 59.7647C123.084 59.7483 123.525 59.732 123.966 59.7157C124.424 59.6993 125.004 59.6666 125.707 59.6176C126.426 59.5686 127.316 59.5114 128.378 59.446V62.7549Z" fill="white"/>
<path d="M11.2875 23.8652L21.0628 40.7965H1.51224L11.2875 23.8652Z" fill="white"/>
<path d="M47.4075 23.8652L57.1828 40.7965H37.6322L47.4075 23.8652Z" fill="white"/>
<path d="M29.3475 40.6348L19.0137 23.7035L39.6813 23.7035L29.3475 40.6348Z" fill="white"/>
</svg>
