<svg width="355" height="400" viewBox="0 0 355 400" fill="none" xmlns="http://www.w3.org/2000/svg">
<path d="M106.2 52.7H107.2V48.8676L105.327 52.2114L106.2 52.7ZM82.4 95.2V96.2H82.9861L83.2725 95.6886L82.4 95.2ZM58.6 95.2L57.7275 95.6886L58.0139 96.2H58.6V95.2ZM34.8 52.7L35.6725 52.2114L33.8 48.8676V52.7H34.8ZM34.8 119V120H35.8V119H34.8ZM4.2 119H3.2V120H4.2V119ZM4.2 -8.10623e-06V-1.00001H3.2V-8.10623e-06H4.2ZM36.5 -8.10623e-06L37.3797 -0.475525L37.0962 -1.00001H36.5V-8.10623e-06ZM70.5 62.9L69.6203 63.3755L70.5 65.003L71.3797 63.3755L70.5 62.9ZM104.5 -8.10623e-06V-1.00001H103.904L103.62 -0.475525L104.5 -8.10623e-06ZM136.8 -8.10623e-06H137.8V-1.00001H136.8V-8.10623e-06ZM136.8 119V120H137.8V119H136.8ZM106.2 119H105.2V120H106.2V119ZM105.327 52.2114L81.5275 94.7114L83.2725 95.6886L107.073 53.1886L105.327 52.2114ZM82.4 94.2H58.6V96.2H82.4V94.2ZM59.4725 94.7114L35.6725 52.2114L33.9275 53.1886L57.7275 95.6886L59.4725 94.7114ZM33.8 52.7V119H35.8V52.7H33.8ZM34.8 118H4.2V120H34.8V118ZM5.2 119V-8.10623e-06H3.2V119H5.2ZM4.2 0.999992H36.5V-1.00001H4.2V0.999992ZM35.6203 0.475509L69.6203 63.3755L71.3797 62.4245L37.3797 -0.475525L35.6203 0.475509ZM71.3797 63.3755L105.38 0.475509L103.62 -0.475525L69.6203 62.4245L71.3797 63.3755ZM104.5 0.999992H136.8V-1.00001H104.5V0.999992ZM135.8 -8.10623e-06V119H137.8V-8.10623e-06H135.8ZM136.8 118H106.2V120H136.8V118ZM107.2 119V52.7H105.2V119H107.2ZM183.616 64.6H182.616V65.6H183.616V64.6ZM212.516 64.6V65.6H213.516V64.6H212.516ZM238.866 117.3L238.969 118.295L239.866 118.202V117.3H238.866ZM160.836 113.73L160.129 114.437L160.836 113.73ZM161.006 34.51L161.714 35.2171L161.006 34.51ZM234.956 34.51L234.241 35.2087L234.249 35.2172L234.258 35.2254L234.956 34.51ZM242.266 85.85V86.85H243.266V85.85H242.266ZM183.616 85.85V84.85H182.616V85.85H183.616ZM185.316 96.9L186.024 96.1929L185.316 96.9ZM238.866 96.05H239.866V94.9684L238.788 95.0531L238.866 96.05ZM190.416 47.45C187.996 47.45 185.996 48.0559 184.609 49.4429C183.222 50.8299 182.616 52.8292 182.616 55.25H184.616C184.616 53.1375 185.144 51.7368 186.024 50.8571C186.903 49.9775 188.304 49.45 190.416 49.45V47.45ZM182.616 55.25V64.6H184.616V55.25H182.616ZM183.616 65.6H212.516V63.6H183.616V65.6ZM213.516 64.6V55.25H211.516V64.6H213.516ZM213.516 55.25C213.516 52.8292 212.911 50.8299 211.524 49.4429C210.137 48.0559 208.137 47.45 205.716 47.45V49.45C207.829 49.45 209.23 49.9775 210.109 50.8571C210.989 51.7368 211.516 53.1375 211.516 55.25H213.516ZM205.716 47.45H190.416V49.45H205.716V47.45ZM238.763 116.305C216.917 118.569 197.118 119.7 179.366 119.7V121.7C197.201 121.7 217.07 120.564 238.969 118.295L238.763 116.305ZM179.366 119.7C171.876 119.7 165.97 117.45 161.544 113.023L160.129 114.437C164.996 119.304 171.444 121.7 179.366 121.7V119.7ZM161.544 113.023C157.117 108.596 154.866 102.691 154.866 95.2H152.866C152.866 103.122 155.263 109.571 160.129 114.437L161.544 113.023ZM154.866 95.2V54.4H152.866V95.2H154.866ZM154.866 54.4C154.866 46.0919 157.187 39.7434 161.714 35.2171L160.299 33.8029C155.306 38.7966 152.866 45.7081 152.866 54.4H154.866ZM161.714 35.2171C166.357 30.5731 172.766 28.2 181.066 28.2V26.2C172.367 26.2 165.402 28.7002 160.299 33.8029L161.714 35.2171ZM181.066 28.2H215.066V26.2H181.066V28.2ZM215.066 28.2C223.368 28.2 229.713 30.5734 234.241 35.2087L235.672 33.8113C230.679 28.6999 223.765 26.2 215.066 26.2V28.2ZM234.258 35.2254C238.893 39.7529 241.266 46.0985 241.266 54.4H243.266C243.266 45.7015 240.766 38.7871 235.655 33.7946L234.258 35.2254ZM241.266 54.4V85.85H243.266V54.4H241.266ZM242.266 84.85H183.616V86.85H242.266V84.85ZM182.616 85.85V92.65H184.616V85.85H182.616ZM182.616 92.65C182.616 94.5974 183.276 96.274 184.609 97.6071L186.024 96.1929C185.09 95.2594 184.616 94.1026 184.616 92.65H182.616ZM184.609 97.6071C185.942 98.9402 187.619 99.6 189.566 99.6V97.6C188.114 97.6 186.957 97.1264 186.024 96.1929L184.609 97.6071ZM189.566 99.6C200.827 99.6 217.291 98.7475 238.945 97.0469L238.788 95.0531C217.148 96.7525 200.746 97.6 189.566 97.6V99.6ZM237.866 96.05V117.3H239.866V96.05H237.866ZM320.4 119L320.503 119.995L321.4 119.902V119H320.4ZM269.57 113.73L270.277 113.023L269.57 113.73ZM262.6 51.85H263.6V50.85H262.6V51.85ZM252.4 51.85H251.4V52.85H252.4V51.85ZM252.4 28.9V27.9H251.4V28.9H252.4ZM262.6 28.9V29.9H263.447L263.586 29.0644L262.6 28.9ZM266 8.49999V7.49999H265.153L265.014 8.3356L266 8.49999ZM292.35 8.49999H293.35V7.49999H292.35V8.49999ZM292.35 28.9H291.35V29.9H292.35V28.9ZM313.6 28.9H314.6V27.9H313.6V28.9ZM313.6 51.85V52.85H314.6V51.85H313.6ZM292.35 51.85V50.85H291.35V51.85H292.35ZM294.05 95.2L293.343 95.9071L294.05 95.2ZM320.4 96.9H321.4V95.9H320.4V96.9ZM320.297 118.005C309.337 119.135 298.604 119.7 288.1 119.7V121.7C298.676 121.7 309.477 121.131 320.503 119.995L320.297 118.005ZM288.1 119.7C280.609 119.7 274.704 117.45 270.277 113.023L268.863 114.437C273.729 119.304 280.178 121.7 288.1 121.7V119.7ZM270.277 113.023C265.85 108.596 263.6 102.691 263.6 95.2H261.6C261.6 103.122 263.996 109.571 268.863 114.437L270.277 113.023ZM263.6 95.2V51.85H261.6V95.2H263.6ZM262.6 50.85H252.4V52.85H262.6V50.85ZM253.4 51.85V28.9H251.4V51.85H253.4ZM252.4 29.9H262.6V27.9H252.4V29.9ZM263.586 29.0644L266.986 8.66439L265.014 8.3356L261.614 28.7356L263.586 29.0644ZM266 9.49999H292.35V7.49999H266V9.49999ZM291.35 8.49999V28.9H293.35V8.49999H291.35ZM292.35 29.9H313.6V27.9H292.35V29.9ZM312.6 28.9V51.85H314.6V28.9H312.6ZM313.6 50.85H292.35V52.85H313.6V50.85ZM291.35 51.85V90.95H293.35V51.85H291.35ZM291.35 90.95C291.35 92.8974 292.01 94.574 293.343 95.9071L294.757 94.4929C293.824 93.5594 293.35 92.4026 293.35 90.95H291.35ZM293.343 95.9071C294.676 97.2402 296.353 97.9 298.3 97.9V95.9C296.847 95.9 295.691 95.4264 294.757 94.4929L293.343 95.9071ZM298.3 97.9H320.4V95.9H298.3V97.9ZM319.4 96.9V119H321.4V96.9H319.4ZM82.4 243.3L82.5064 244.294L83.4 244.199V243.3H82.4ZM7.77 239.73L7.06289 240.437L7.77 239.73ZM7.94 162.21L8.64711 162.917L7.94 162.21ZM82.4 154.9H83.4V153.9H82.4V154.9ZM82.4 177.85V178.85H83.4V177.85H82.4ZM82.4 221.2H83.4V220.113L82.317 220.203L82.4 221.2ZM82.2937 242.306C61.1254 244.57 42.4621 245.7 26.3 245.7V247.7C42.5512 247.7 61.288 246.564 82.5064 244.294L82.2937 242.306ZM26.3 245.7C18.8092 245.7 12.904 243.45 8.47711 239.023L7.06289 240.437C11.9294 245.304 18.3775 247.7 26.3 247.7V245.7ZM8.47711 239.023C4.05023 234.596 1.8 228.691 1.8 221.2H-0.199999C-0.199999 229.122 2.19643 235.571 7.06289 240.437L8.47711 239.023ZM1.8 221.2V182.1H-0.199999V221.2H1.8ZM1.8 182.1C1.8 173.792 4.12082 167.443 8.64711 162.917L7.23289 161.503C2.23918 166.497 -0.199999 173.408 -0.199999 182.1H1.8ZM8.64711 162.917C13.2911 158.273 19.6996 155.9 28 155.9V153.9C19.3004 153.9 12.3356 156.4 7.23289 161.503L8.64711 162.917ZM28 155.9H82.4V153.9H28V155.9ZM81.4 154.9V177.85H83.4V154.9H81.4ZM82.4 176.85H37.35V178.85H82.4V176.85ZM37.35 176.85C34.9292 176.85 32.9299 177.456 31.5429 178.843C30.1559 180.23 29.55 182.229 29.55 184.65H31.55C31.55 182.537 32.0775 181.137 32.9571 180.257C33.8368 179.377 35.2375 178.85 37.35 178.85V176.85ZM29.55 184.65V217.8H31.55V184.65H29.55ZM29.55 217.8C29.55 219.747 30.2098 221.424 31.5429 222.757L32.9571 221.343C32.0236 220.409 31.55 219.253 31.55 217.8H29.55ZM31.5429 222.757C32.876 224.09 34.5526 224.75 36.5 224.75V222.75C35.0474 222.75 33.8906 222.276 32.9571 221.343L31.5429 222.757ZM36.5 224.75C46.7432 224.75 62.077 223.897 82.4831 222.197L82.317 220.203C61.923 221.903 46.6568 222.75 36.5 222.75V224.75ZM81.4 221.2V243.3H83.4V221.2H81.4ZM180.457 239.56L181.164 240.267L180.457 239.56ZM101.407 239.56L100.691 240.259L100.7 240.267L100.708 240.275L101.407 239.56ZM101.407 160.51L102.114 161.217L101.407 160.51ZM180.457 160.51L179.741 161.209L179.75 161.217L179.758 161.225L180.457 160.51ZM186.767 219.5C186.767 227.8 184.394 234.209 179.75 238.853L181.164 240.267C186.267 235.164 188.767 228.2 188.767 219.5H186.767ZM179.75 238.853C175.223 243.379 168.875 245.7 160.567 245.7V247.7C169.259 247.7 176.17 245.261 181.164 240.267L179.75 238.853ZM160.567 245.7H121.467V247.7H160.567V245.7ZM121.467 245.7C113.16 245.7 106.748 243.38 102.106 238.845L100.708 240.275C105.812 245.26 112.774 247.7 121.467 247.7V245.7ZM102.122 238.861C97.5873 234.218 95.2668 227.807 95.2668 219.5H93.2668C93.2668 228.193 95.7063 235.155 100.691 240.259L102.122 238.861ZM95.2668 219.5V180.4H93.2668V219.5H95.2668ZM95.2668 180.4C95.2668 172.092 97.5876 165.743 102.114 161.217L100.7 159.803C95.706 164.797 93.2668 171.708 93.2668 180.4H95.2668ZM102.114 161.217C106.758 156.573 113.166 154.2 121.467 154.2V152.2C112.767 152.2 105.802 154.7 100.7 159.803L102.114 161.217ZM121.467 154.2H160.567V152.2H121.467V154.2ZM160.567 154.2C168.868 154.2 175.214 156.573 179.741 161.209L181.172 159.811C176.18 154.7 169.265 152.2 160.567 152.2V154.2ZM179.758 161.225C184.393 165.753 186.767 172.099 186.767 180.4H188.767C188.767 171.701 186.267 164.787 181.156 159.795L179.758 161.225ZM186.767 180.4V219.5H188.767V180.4H186.767ZM159.017 182.95C159.017 180.529 158.411 178.53 157.024 177.143C155.637 175.756 153.638 175.15 151.217 175.15V177.15C153.329 177.15 154.73 177.677 155.61 178.557C156.489 179.437 157.017 180.837 157.017 182.95H159.017ZM151.217 175.15H130.817V177.15H151.217V175.15ZM130.817 175.15C128.396 175.15 126.397 175.756 125.01 177.143C123.623 178.53 123.017 180.529 123.017 182.95H125.017C125.017 180.837 125.544 179.437 126.424 178.557C127.304 177.677 128.704 177.15 130.817 177.15V175.15ZM123.017 182.95V216.95H125.017V182.95H123.017ZM123.017 216.95C123.017 219.371 123.623 221.37 125.01 222.757C126.397 224.144 128.396 224.75 130.817 224.75V222.75C128.704 222.75 127.304 222.223 126.424 221.343C125.544 220.463 125.017 219.063 125.017 216.95H123.017ZM130.817 224.75H151.217V222.75H130.817V224.75ZM151.217 224.75C153.638 224.75 155.637 224.144 157.024 222.757C158.411 221.37 159.017 219.371 159.017 216.95H157.017C157.017 219.063 156.489 220.463 155.61 221.343C154.73 222.223 153.329 222.75 151.217 222.75V224.75ZM159.017 216.95V182.95H157.017V216.95H159.017ZM284.647 163.4L283.84 163.991L284.409 164.766L285.206 164.229L284.647 163.4ZM301.477 155.75L301.732 156.717L301.745 156.714L301.477 155.75ZM338.027 160.17L337.32 160.877L338.027 160.17ZM344.997 245V246H345.997V245H344.997ZM315.247 245H314.247V246H315.247V245ZM288.897 181.25L288.622 180.288L287.897 180.496V181.25H288.897ZM288.897 245V246H289.897V245H288.897ZM259.147 245H258.147V246H259.147V245ZM257.447 179.55L256.74 180.257L257.447 179.55ZM232.797 181.25L232.522 180.288L231.797 180.496V181.25H232.797ZM232.797 245V246H233.797V245H232.797ZM203.047 245H202.047V246H203.047V245ZM203.047 154.9V153.9H202.047V154.9H203.047ZM229.397 154.9L230.377 154.704L230.217 153.9H229.397V154.9ZM231.097 163.4L230.116 163.596L230.408 165.053L231.647 164.235L231.097 163.4ZM247.417 155.75L247.692 156.712L247.704 156.708L247.417 155.75ZM263.397 154.2C272.291 154.2 279.061 157.474 283.84 163.991L285.453 162.809C280.26 155.726 272.863 152.2 263.397 152.2V154.2ZM285.206 164.229C290.327 160.778 295.835 158.275 301.732 156.717L301.221 154.783C295.105 156.399 289.393 158.996 284.088 162.571L285.206 164.229ZM301.745 156.714C307.805 155.03 313.152 154.2 317.797 154.2V152.2C312.922 152.2 307.389 153.07 301.209 154.786L301.745 156.714ZM317.797 154.2H319.497V152.2H317.797V154.2ZM319.497 154.2C326.988 154.2 332.893 156.45 337.32 160.877L338.734 159.463C333.868 154.596 327.419 152.2 319.497 152.2V154.2ZM337.32 160.877C341.747 165.304 343.997 171.209 343.997 178.7H345.997C345.997 170.778 343.6 164.329 338.734 159.463L337.32 160.877ZM343.997 178.7V245H345.997V178.7H343.997ZM344.997 244H315.247V246H344.997V244ZM316.247 245V183.8H314.247V245H316.247ZM316.247 183.8C316.247 181.853 315.587 180.176 314.254 178.843L312.84 180.257C313.773 181.191 314.247 182.347 314.247 183.8H316.247ZM314.254 178.843C312.921 177.51 311.244 176.85 309.297 176.85V178.85C310.75 178.85 311.906 179.324 312.84 180.257L314.254 178.843ZM309.297 176.85H308.447V178.85H309.297V176.85ZM308.447 176.85C303.215 176.85 296.597 178.01 288.622 180.288L289.172 182.212C297.063 179.957 303.479 178.85 308.447 178.85V176.85ZM287.897 181.25V245H289.897V181.25H287.897ZM288.897 244H259.147V246H288.897V244ZM260.147 245V183.8H258.147V245H260.147ZM260.147 183.8C260.147 181.853 259.487 180.176 258.154 178.843L256.74 180.257C257.673 181.191 258.147 182.347 258.147 183.8H260.147ZM258.154 178.843C256.821 177.51 255.144 176.85 253.197 176.85V178.85C254.65 178.85 255.806 179.324 256.74 180.257L258.154 178.843ZM253.197 176.85H252.347V178.85H253.197V176.85ZM252.347 176.85C247.115 176.85 240.497 178.01 232.522 180.288L233.072 182.212C240.963 179.957 247.379 178.85 252.347 178.85V176.85ZM231.797 181.25V245H233.797V181.25H231.797ZM232.797 244H203.047V246H232.797V244ZM204.047 245V154.9H202.047V245H204.047ZM203.047 155.9H229.397V153.9H203.047V155.9ZM228.416 155.096L230.116 163.596L232.077 163.204L230.377 154.704L228.416 155.096ZM231.647 164.235C236.898 160.772 242.246 158.267 247.692 156.712L247.142 154.788C241.481 156.406 235.949 159.002 230.546 162.565L231.647 164.235ZM247.704 156.708C253.322 155.023 257.978 154.2 261.697 154.2V152.2C257.709 152.2 252.845 153.077 247.13 154.792L247.704 156.708ZM261.697 154.2H263.397V152.2H261.697V154.2ZM32.25 307.25L31.964 306.292L31.25 306.505V307.25H32.25ZM32.25 348.05H31.25V349.05H32.25V348.05ZM62.85 305.55L63.5571 304.843L62.85 305.55ZM32.25 371V370H31.25V371H32.25ZM32.25 399.9V400.9H33.25V399.9H32.25ZM2.5 399.9H1.5V400.9H2.5V399.9ZM2.5 280.9V279.9H1.5V280.9H2.5ZM28.85 280.9L29.8306 280.704L29.6698 279.9H28.85V280.9ZM30.55 289.4L29.5694 289.596L29.8607 291.053L31.1006 290.235L30.55 289.4ZM46.87 281.75L47.1447 282.712L47.1574 282.708L46.87 281.75ZM87.33 286.17L86.6229 286.877L87.33 286.17ZM86.99 363.86L87.6971 364.567L86.99 363.86ZM52.65 302.85C46.5212 302.85 39.6224 304.006 31.964 306.292L32.536 308.208C40.0643 305.961 46.7654 304.85 52.65 304.85V302.85ZM31.25 307.25V348.05H33.25V307.25H31.25ZM32.25 349.05H57.75V347.05H32.25V349.05ZM57.75 349.05C60.1708 349.05 62.1701 348.444 63.5571 347.057C64.9441 345.67 65.55 343.671 65.55 341.25H63.55C63.55 343.363 63.0226 344.763 62.1429 345.643C61.2632 346.523 59.8625 347.05 57.75 347.05V349.05ZM65.55 341.25V309.8H63.55V341.25H65.55ZM65.55 309.8C65.55 307.853 64.8902 306.176 63.5571 304.843L62.1429 306.257C63.0764 307.191 63.55 308.347 63.55 309.8H65.55ZM63.5571 304.843C62.224 303.51 60.5474 302.85 58.6 302.85V304.85C60.0526 304.85 61.2094 305.324 62.1429 306.257L63.5571 304.843ZM58.6 302.85H52.65V304.85H58.6V302.85ZM31.25 371V399.9H33.25V371H31.25ZM32.25 398.9H2.5V400.9H32.25V398.9ZM3.5 399.9V280.9H1.5V399.9H3.5ZM2.5 281.9H28.85V279.9H2.5V281.9ZM27.8694 281.096L29.5694 289.596L31.5306 289.204L29.8306 280.704L27.8694 281.096ZM31.1006 290.235C36.3511 286.772 41.6989 284.267 47.1447 282.712L46.5953 280.788C40.9344 282.406 35.4022 285.002 29.9994 288.565L31.1006 290.235ZM47.1574 282.708C52.775 281.023 57.4313 280.2 61.15 280.2V278.2C57.162 278.2 52.2983 279.077 46.5827 280.792L47.1574 282.708ZM61.15 280.2H68.8V278.2H61.15V280.2ZM68.8 280.2C76.2908 280.2 82.196 282.45 86.6229 286.877L88.0371 285.463C83.1706 280.596 76.7225 278.2 68.8 278.2V280.2ZM86.6229 286.877C91.0498 291.304 93.3 297.209 93.3 304.7H95.3C95.3 296.777 92.9036 290.329 88.0371 285.463L86.6229 286.877ZM93.3 304.7V343.8H95.3V304.7H93.3ZM93.3 343.8C93.3 352.1 90.9269 358.509 86.2829 363.153L87.6971 364.567C92.7998 359.464 95.3 352.5 95.3 343.8H93.3ZM86.2829 363.153C81.7566 367.679 75.4081 370 67.1 370V372C75.7919 372 82.7034 369.561 87.6971 364.567L86.2829 363.153ZM67.1 370H32.25V372H67.1V370ZM155.48 371L155.628 371.989L156.48 371.862V371H155.48ZM116.55 365.73L117.257 365.023L116.55 365.73ZM109.58 252V251H108.58V252H109.58ZM139.33 252H140.33V251H139.33V252ZM141.03 347.2L140.323 347.907L141.03 347.2ZM155.48 348.9H156.48V347.9H155.48V348.9ZM155.332 370.011C147.783 371.138 140.579 371.7 133.72 371.7V373.7C140.688 373.7 147.991 373.129 155.628 371.989L155.332 370.011ZM133.72 371.7C127.175 371.7 121.709 369.475 117.257 365.023L115.843 366.437C120.684 371.278 126.665 373.7 133.72 373.7V371.7ZM117.257 365.023C112.83 360.596 110.58 354.691 110.58 347.2H108.58C108.58 355.122 110.977 361.571 115.843 366.437L117.257 365.023ZM110.58 347.2V252H108.58V347.2H110.58ZM109.58 253H139.33V251H109.58V253ZM138.33 252V342.95H140.33V252H138.33ZM138.33 342.95C138.33 344.897 138.99 346.574 140.323 347.907L141.737 346.493C140.804 345.559 140.33 344.403 140.33 342.95H138.33ZM140.323 347.907C141.656 349.24 143.333 349.9 145.28 349.9V347.9C143.827 347.9 142.671 347.426 141.737 346.493L140.323 347.907ZM145.28 349.9H155.48V347.9H145.28V349.9ZM154.48 348.9V371H156.48V348.9H154.48ZM195.404 316.6H194.404V317.6H195.404V316.6ZM224.304 316.6V317.6H225.304V316.6H224.304ZM250.654 369.3L250.757 370.295L251.654 370.202V369.3H250.654ZM172.624 365.73L171.916 366.437L172.624 365.73ZM172.794 286.51L173.501 287.217L172.794 286.51ZM246.744 286.51L246.028 287.209L246.036 287.217L246.045 287.225L246.744 286.51ZM254.054 337.85V338.85H255.054V337.85H254.054ZM195.404 337.85V336.85H194.404V337.85H195.404ZM197.104 348.9L197.811 348.193L197.104 348.9ZM250.654 348.05H251.654V346.968L250.575 347.053L250.654 348.05ZM202.204 299.45C199.783 299.45 197.783 300.056 196.396 301.443C195.009 302.83 194.404 304.829 194.404 307.25H196.404C196.404 305.137 196.931 303.737 197.811 302.857C198.69 301.977 200.091 301.45 202.204 301.45V299.45ZM194.404 307.25V316.6H196.404V307.25H194.404ZM195.404 317.6H224.304V315.6H195.404V317.6ZM225.304 316.6V307.25H223.304V316.6H225.304ZM225.304 307.25C225.304 304.829 224.698 302.83 223.311 301.443C221.924 300.056 219.924 299.45 217.504 299.45V301.45C219.616 301.45 221.017 301.977 221.896 302.857C222.776 303.737 223.304 305.137 223.304 307.25H225.304ZM217.504 299.45H202.204V301.45H217.504V299.45ZM250.55 368.305C228.704 370.569 208.906 371.7 191.154 371.7V373.7C208.988 373.7 228.857 372.564 250.757 370.295L250.55 368.305ZM191.154 371.7C183.663 371.7 177.757 369.45 173.331 365.023L171.916 366.437C176.783 371.304 183.231 373.7 191.154 373.7V371.7ZM173.331 365.023C168.904 360.596 166.654 354.691 166.654 347.2H164.654C164.654 355.122 167.05 361.571 171.916 366.437L173.331 365.023ZM166.654 347.2V306.4H164.654V347.2H166.654ZM166.654 306.4C166.654 298.092 168.974 291.743 173.501 287.217L172.086 285.803C167.093 290.797 164.654 297.708 164.654 306.4H166.654ZM173.501 287.217C178.145 282.573 184.553 280.2 192.854 280.2V278.2C184.154 278.2 177.189 280.7 172.086 285.803L173.501 287.217ZM192.854 280.2H226.854V278.2H192.854V280.2ZM226.854 280.2C235.155 280.2 241.501 282.573 246.028 287.209L247.459 285.811C242.466 280.7 235.552 278.2 226.854 278.2V280.2ZM246.045 287.225C250.68 291.753 253.054 298.099 253.054 306.4H255.054C255.054 297.701 252.554 290.787 247.442 285.795L246.045 287.225ZM253.054 306.4V337.85H255.054V306.4H253.054ZM254.054 336.85H195.404V338.85H254.054V336.85ZM194.404 337.85V344.65H196.404V337.85H194.404ZM194.404 344.65C194.404 346.597 195.063 348.274 196.396 349.607L197.811 348.193C196.877 347.259 196.404 346.103 196.404 344.65H194.404ZM196.396 349.607C197.73 350.94 199.406 351.6 201.354 351.6V349.6C199.901 349.6 198.744 349.126 197.811 348.193L196.396 349.607ZM201.354 351.6C212.614 351.6 229.078 350.747 250.732 349.047L250.575 347.053C228.935 348.753 212.533 349.6 201.354 349.6V351.6ZM249.654 348.05V369.3H251.654V348.05H249.654ZM320.327 280.9V279.9H319.726L319.444 280.431L320.327 280.9ZM353.477 280.9L354.333 281.417L355.249 279.9H353.477V280.9ZM326.277 325.95L325.421 325.433L325.104 325.958L325.428 326.479L326.277 325.95ZM354.327 371V372H356.128L355.176 370.471L354.327 371ZM321.177 371L320.305 371.49L320.592 372H321.177V371ZM305.877 343.8L306.749 343.31L305.877 341.76L305.005 343.31L305.877 343.8ZM290.577 371V372H291.162L291.449 371.49L290.577 371ZM257.427 371L256.578 370.471L255.626 372H257.427V371ZM285.477 325.95L286.326 326.479L286.65 325.958L286.333 325.433L285.477 325.95ZM258.277 280.9V279.9H256.505L257.421 281.417L258.277 280.9ZM291.427 280.9L292.31 280.431L292.028 279.9H291.427V280.9ZM305.877 308.1L304.994 308.569L305.877 310.231L306.76 308.569L305.877 308.1ZM320.327 281.9H353.477V279.9H320.327V281.9ZM352.621 280.383L325.421 325.433L327.133 326.467L354.333 281.417L352.621 280.383ZM325.428 326.479L353.478 371.529L355.176 370.471L327.126 325.421L325.428 326.479ZM354.327 370H321.177V372H354.327V370ZM322.049 370.51L306.749 343.31L305.005 344.29L320.305 371.49L322.049 370.51ZM305.005 343.31L289.705 370.51L291.449 371.49L306.749 344.29L305.005 343.31ZM290.577 370H257.427V372H290.577V370ZM258.276 371.529L286.326 326.479L284.628 325.421L256.578 370.471L258.276 371.529ZM286.333 325.433L259.133 280.383L257.421 281.417L284.621 326.467L286.333 325.433ZM258.277 281.9H291.427V279.9H258.277V281.9ZM290.544 281.369L304.994 308.569L306.76 307.631L292.31 280.431L290.544 281.369ZM306.76 308.569L321.21 281.369L319.444 280.431L304.994 307.631L306.76 308.569Z" fill="black"/>
</svg>
