<svg width="842" height="301" viewBox="0 0 842 301" fill="none" xmlns="http://www.w3.org/2000/svg">
<path d="M124.66 62.61H125.66V58.7776L123.788 62.1214L124.66 62.61ZM96.52 112.86V113.86H97.1061L97.3925 113.349L96.52 112.86ZM68.38 112.86L67.5075 113.349L67.7939 113.86H68.38V112.86ZM40.24 62.61L41.1125 62.1214L39.24 58.7776V62.61H40.24ZM40.24 141V142H41.24V141H40.24ZM4.06 141H3.06V142H4.06V141ZM4.06 0.299991V-0.700009H3.06V0.299991H4.06ZM42.25 0.299991L43.1297 -0.175527L42.8462 -0.700009H42.25V0.299991ZM82.45 74.67L81.5703 75.1455L82.45 76.773L83.3297 75.1455L82.45 74.67ZM122.65 0.299991V-0.700009H122.054L121.77 -0.175527L122.65 0.299991ZM160.84 0.299991H161.84V-0.700009H160.84V0.299991ZM160.84 141V142H161.84V141H160.84ZM124.66 141H123.66V142H124.66V141ZM123.788 62.1214L95.6475 112.371L97.3925 113.349L125.533 63.0986L123.788 62.1214ZM96.52 111.86H68.38V113.86H96.52V111.86ZM69.2525 112.371L41.1125 62.1214L39.3675 63.0986L67.5075 113.349L69.2525 112.371ZM39.24 62.61V141H41.24V62.61H39.24ZM40.24 140H4.06V142H40.24V140ZM5.06 141V0.299991H3.06V141H5.06ZM4.06 1.29999H42.25V-0.700009H4.06V1.29999ZM41.3703 0.775507L81.5703 75.1455L83.3297 74.1945L43.1297 -0.175527L41.3703 0.775507ZM83.3297 75.1455L123.53 0.775507L121.77 -0.175527L81.5703 74.1945L83.3297 75.1455ZM122.65 1.29999H160.84V-0.700009H122.65V1.29999ZM159.84 0.299991V141H161.84V0.299991H159.84ZM160.84 140H124.66V142H160.84V140ZM125.66 141V62.61H123.66V141H125.66ZM216.194 76.68H215.194V77.68H216.194V76.68ZM250.364 76.68V77.68H251.364V76.68H250.364ZM189.461 41.103L190.168 41.8101L189.461 41.103ZM276.896 41.103L276.18 41.8017L276.188 41.8102L276.197 41.8184L276.896 41.103ZM285.539 101.805V102.805H286.539V101.805H285.539ZM216.194 101.805V100.805H215.194V101.805H216.194ZM218.204 114.87L218.911 114.163L218.204 114.87ZM241.922 116.478L241.882 115.479L241.882 115.479L241.922 116.478ZM261.017 115.473L261.085 116.471L261.095 116.47L261.017 115.473ZM281.519 113.865H282.519V112.783L281.44 112.868L281.519 113.865ZM281.519 138.99L281.621 139.985L282.519 139.892V138.99H281.519ZM257.6 141L257.534 140.002L257.523 140.003L257.6 141ZM234.887 142.407L234.936 143.406L234.887 142.407ZM189.26 134.769L188.552 135.476L189.26 134.769ZM224.234 56.585C221.399 56.585 219.09 57.2942 217.496 58.8879C215.903 60.4816 215.194 62.7908 215.194 65.625H217.194C217.194 63.0991 217.824 61.3884 218.911 60.3021C219.997 59.2158 221.708 58.585 224.234 58.585V56.585ZM215.194 65.625V76.68H217.194V65.625H215.194ZM216.194 77.68H250.364V75.68H216.194V77.68ZM251.364 76.68V65.625H249.364V76.68H251.364ZM251.364 65.625C251.364 62.7909 250.654 60.4816 249.061 58.8879C247.467 57.2942 245.158 56.585 242.324 56.585V58.585C244.849 58.585 246.56 59.2158 247.646 60.3021C248.733 61.3884 249.364 63.0991 249.364 65.625H251.364ZM242.324 56.585H224.234V58.585H242.324V56.585ZM182.019 64.62C182.019 54.7619 184.773 47.2044 190.168 41.8101L188.753 40.3959C182.892 46.2576 180.019 54.3781 180.019 64.62H182.019ZM190.168 41.8101C195.7 36.2775 203.328 33.46 213.179 33.46V31.46C202.929 31.46 194.745 34.4045 188.753 40.3959L190.168 41.8101ZM213.179 33.46H253.379V31.46H213.179V33.46ZM253.379 33.46C263.23 33.46 270.785 36.2777 276.18 41.8017L277.611 40.4043C271.75 34.4043 263.627 31.46 253.379 31.46V33.46ZM276.197 41.8184C281.721 47.2139 284.539 54.7685 284.539 64.62H286.539C286.539 54.3715 283.594 46.2481 277.594 40.3876L276.197 41.8184ZM284.539 64.62V101.805H286.539V64.62H284.539ZM285.539 100.805H216.194V102.805H285.539V100.805ZM215.194 101.805V109.845H217.194V101.805H215.194ZM215.194 109.845C215.194 112.102 215.957 114.037 217.496 115.577L218.911 114.163C217.77 113.023 217.194 111.608 217.194 109.845H215.194ZM217.496 115.577C219.036 117.117 220.971 117.88 223.229 117.88V115.88C221.466 115.88 220.051 115.303 218.911 114.163L217.496 115.577ZM223.229 117.88C229.006 117.88 235.25 117.746 241.961 117.477L241.882 115.479C235.193 115.746 228.975 115.88 223.229 115.88V117.88ZM241.961 117.477C248.803 117.209 255.178 116.873 261.085 116.471L260.948 114.475C255.063 114.877 248.708 115.211 241.882 115.479L241.961 117.477ZM261.095 116.47C267.929 115.934 274.763 115.398 281.597 114.862L281.44 112.868C274.606 113.404 267.772 113.94 260.938 114.476L261.095 116.47ZM280.519 113.865V138.99H282.519V113.865H280.519ZM281.416 137.995C273.657 138.798 265.696 139.467 257.534 140.002L257.665 141.998C265.851 141.461 273.836 140.79 281.621 139.985L281.416 137.995ZM257.523 140.003C250.565 140.538 243.004 141.007 234.837 141.408L234.936 143.406C243.117 143.003 250.698 142.534 257.676 141.997L257.523 140.003ZM234.837 141.408C226.679 141.809 218.789 142.01 211.169 142.01V144.01C218.824 144.01 226.746 143.809 234.936 143.406L234.837 141.408ZM211.169 142.01C202.272 142.01 195.241 139.336 189.967 134.062L188.552 135.476C194.266 141.19 201.841 144.01 211.169 144.01V142.01ZM189.967 134.062C184.692 128.788 182.019 121.756 182.019 112.86H180.019C180.019 122.188 182.839 129.762 188.552 135.476L189.967 134.062ZM182.019 112.86V64.62H180.019V112.86H182.019ZM344.755 34.47H343.755V35.47H344.755V34.47ZM369.88 34.47H370.88V33.47H369.88V34.47ZM369.88 61.605V62.605H370.88V61.605H369.88ZM344.755 61.605V60.605H343.755V61.605H344.755ZM346.765 112.86L346.058 113.567L346.765 112.86ZM377.92 114.87H378.92V113.87H377.92V114.87ZM377.92 141L378.023 141.995L378.92 141.902V141H377.92ZM365.659 142.005L365.597 141.007L365.585 141.008L365.659 142.005ZM353.398 142.608L353.369 141.608L353.354 141.609L353.339 141.61L353.398 142.608ZM317.821 134.769L318.528 134.062L317.821 134.769ZM309.58 61.605H310.58V60.605H309.58V61.605ZM297.52 61.605H296.52V62.605H297.52V61.605ZM297.52 34.47V33.47H296.52V34.47H297.52ZM309.58 34.47V35.47H310.427L310.566 34.6344L309.58 34.47ZM313.6 10.35V9.34999H312.753L312.614 10.1856L313.6 10.35ZM344.755 10.35H345.755V9.34999H344.755V10.35ZM344.755 35.47H369.88V33.47H344.755V35.47ZM368.88 34.47V61.605H370.88V34.47H368.88ZM369.88 60.605H344.755V62.605H369.88V60.605ZM343.755 61.605V107.835H345.755V61.605H343.755ZM343.755 107.835C343.755 110.092 344.518 112.027 346.058 113.567L347.472 112.153C346.332 111.013 345.755 109.598 345.755 107.835H343.755ZM346.058 113.567C347.598 115.107 349.533 115.87 351.79 115.87V113.87C350.027 113.87 348.612 113.293 347.472 112.153L346.058 113.567ZM351.79 115.87H377.92V113.87H351.79V115.87ZM376.92 114.87V141H378.92V114.87H376.92ZM377.817 140.005C373.946 140.406 369.872 140.74 365.597 141.007L365.721 143.003C370.022 142.734 374.122 142.398 378.023 141.995L377.817 140.005ZM365.585 141.008C361.985 141.274 357.913 141.475 353.369 141.608L353.427 143.608C357.995 143.473 362.097 143.272 365.733 143.002L365.585 141.008ZM353.339 141.61C348.803 141.877 344.266 142.01 339.73 142.01V144.01C344.306 144.01 348.881 143.875 353.457 143.606L353.339 141.61ZM339.73 142.01C330.834 142.01 323.802 139.336 318.528 134.062L317.114 135.476C322.828 141.19 330.402 144.01 339.73 144.01V142.01ZM318.528 134.062C313.254 128.788 310.58 121.756 310.58 112.86H308.58C308.58 122.188 311.4 129.762 317.114 135.476L318.528 134.062ZM310.58 112.86V61.605H308.58V112.86H310.58ZM309.58 60.605H297.52V62.605H309.58V60.605ZM298.52 61.605V34.47H296.52V61.605H298.52ZM297.52 35.47H309.58V33.47H297.52V35.47ZM310.566 34.6344L314.586 10.5144L312.614 10.1856L308.594 34.3056L310.566 34.6344ZM313.6 11.35H344.755V9.34999H313.6V11.35ZM343.755 10.35V34.47H345.755V10.35H343.755ZM8.482 168.113L9.18911 168.82L8.482 168.113ZM96.52 159.47H97.52V158.47H96.52V159.47ZM96.52 186.605V187.605H97.52V186.605H96.52ZM59.536 240.473L59.5785 241.472L59.536 240.473ZM77.224 239.468L77.297 240.465L77.3071 240.465L77.224 239.468ZM96.52 237.86H97.52V236.773L96.437 236.863L96.52 237.86ZM96.52 263.99L96.6265 264.984L97.52 264.889V263.99H96.52ZM73.807 266L73.737 265.002L73.7256 265.003L73.807 266ZM52.3 267.407L52.2483 266.408L52.2474 266.408L52.3 267.407ZM8.281 259.769L7.57389 260.476L8.281 259.769ZM1.04 191.63C1.04 181.772 3.79482 174.214 9.18911 168.82L7.77489 167.406C1.91318 173.268 -0.96 181.388 -0.96 191.63H1.04ZM9.18911 168.82C14.7218 163.287 22.3496 160.47 32.2 160.47V158.47C21.9504 158.47 13.7662 161.415 7.77489 167.406L9.18911 168.82ZM32.2 160.47H96.52V158.47H32.2V160.47ZM95.52 159.47V186.605H97.52V159.47H95.52ZM96.52 185.605H43.255V187.605H96.52V185.605ZM43.255 185.605C40.4209 185.605 38.1116 186.314 36.5179 187.908C34.9242 189.502 34.215 191.811 34.215 194.645H36.215C36.215 192.119 36.8458 190.408 37.9321 189.322C39.0184 188.236 40.7291 187.605 43.255 187.605V185.605ZM34.215 194.645V233.84H36.215V194.645H34.215ZM34.215 233.84C34.215 236.097 34.9781 238.032 36.5179 239.572L37.9321 238.158C36.7919 237.018 36.215 235.603 36.215 233.84H34.215ZM36.5179 239.572C38.0577 241.112 39.9926 241.875 42.25 241.875V239.875C40.4874 239.875 39.0723 239.298 37.9321 238.158L36.5179 239.572ZM42.25 241.875C47.4927 241.875 53.2691 241.741 59.5785 241.472L59.4935 239.474C53.2069 239.741 47.4593 239.875 42.25 239.875V241.875ZM59.5785 241.472C65.8853 241.204 71.7915 240.868 77.297 240.465L77.151 238.471C71.6685 238.872 65.7827 239.206 59.4935 239.474L59.5785 241.472ZM77.3071 240.465C83.7391 239.929 90.1711 239.393 96.6031 238.857L96.437 236.863C90.005 237.399 83.573 237.935 77.141 238.471L77.3071 240.465ZM95.52 237.86V263.99H97.52V237.86H95.52ZM96.4135 262.996C88.9218 263.798 81.363 264.467 73.737 265.002L73.877 266.998C81.527 266.461 89.1102 265.79 96.6265 264.984L96.4135 262.996ZM73.7256 265.003C67.1711 265.538 60.0122 266.007 52.2483 266.408L52.3517 268.406C60.1319 268.003 67.3109 267.534 73.8884 266.997L73.7256 265.003ZM52.2474 266.408C44.6256 266.81 37.2732 267.01 30.19 267.01V269.01C37.3108 269.01 44.6984 268.808 52.3526 268.406L52.2474 266.408ZM30.19 267.01C21.2938 267.01 14.2623 264.336 8.98811 259.062L7.57389 260.476C13.2877 266.19 20.8622 269.01 30.19 269.01V267.01ZM8.98811 259.062C3.7139 253.788 1.04 246.756 1.04 237.86H-0.96C-0.96 247.188 1.8601 254.762 7.57389 260.476L8.98811 259.062ZM1.04 237.86V191.63H-0.96V237.86H1.04ZM212.458 259.568L213.165 260.275L212.458 259.568ZM118.993 259.568L118.277 260.267L118.286 260.275L118.294 260.283L118.993 259.568ZM118.993 166.103L119.7 166.81L118.993 166.103ZM212.458 166.103L211.742 166.802L211.751 166.81L211.759 166.818L212.458 166.103ZM220.101 235.85C220.101 245.7 217.283 253.328 211.751 258.861L213.165 260.275C219.156 254.284 222.101 246.1 222.101 235.85H220.101ZM211.751 258.861C206.356 264.255 198.799 267.01 188.941 267.01V269.01C199.183 269.01 207.303 266.137 213.165 260.275L211.751 258.861ZM188.941 267.01H142.711V269.01H188.941V267.01ZM142.711 267.01C132.854 267.01 125.223 264.256 119.691 258.853L118.294 260.283C124.286 266.136 132.468 269.01 142.711 269.01V267.01ZM119.708 258.869C114.305 253.338 111.551 245.707 111.551 235.85H109.551C109.551 246.093 112.424 254.274 118.277 260.267L119.708 258.869ZM111.551 235.85V189.62H109.551V235.85H111.551ZM111.551 189.62C111.551 179.762 114.306 172.204 119.7 166.81L118.286 165.396C112.424 171.258 109.551 179.378 109.551 189.62H111.551ZM119.7 166.81C125.232 161.277 132.86 158.46 142.711 158.46V156.46C132.461 156.46 124.277 159.405 118.286 165.396L119.7 166.81ZM142.711 158.46H188.941V156.46H142.711V158.46ZM188.941 158.46C198.792 158.46 206.347 161.278 211.742 166.802L213.173 165.404C207.313 159.404 199.189 156.46 188.941 156.46V158.46ZM211.759 166.818C217.283 172.214 220.101 179.769 220.101 189.62H222.101C222.101 179.371 219.156 171.248 213.156 165.388L211.759 166.818ZM220.101 189.62V235.85H222.101V189.62H220.101ZM186.926 192.635C186.926 189.801 186.217 187.492 184.623 185.898C183.029 184.304 180.72 183.595 177.886 183.595V185.595C180.412 185.595 182.122 186.226 183.209 187.312C184.295 188.398 184.926 190.109 184.926 192.635H186.926ZM177.886 183.595H153.766V185.595H177.886V183.595ZM153.766 183.595C150.932 183.595 148.622 184.304 147.029 185.898C145.435 187.492 144.726 189.801 144.726 192.635H146.726C146.726 190.109 147.357 188.398 148.443 187.312C149.529 186.226 151.24 185.595 153.766 185.595V183.595ZM144.726 192.635V232.835H146.726V192.635H144.726ZM144.726 232.835C144.726 235.669 145.435 237.978 147.029 239.572C148.622 241.166 150.932 241.875 153.766 241.875V239.875C151.24 239.875 149.529 239.244 148.443 238.158C147.357 237.072 146.726 235.361 146.726 232.835H144.726ZM153.766 241.875H177.886V239.875H153.766V241.875ZM177.886 241.875C180.72 241.875 183.029 241.166 184.623 239.572C186.217 237.978 186.926 235.669 186.926 232.835H184.926C184.926 235.361 184.295 237.072 183.209 238.158C182.122 239.244 180.412 239.875 177.886 239.875V241.875ZM186.926 232.835V192.635H184.926V232.835H186.926ZM356.35 187.208L356.202 186.219L356.35 187.208ZM348.913 188.615L349.109 189.596L349.126 189.592L349.142 189.588L348.913 188.615ZM340.672 190.625L340.397 189.663L339.672 189.871V190.625H340.672ZM340.672 266V267H341.672V266H340.672ZM305.497 266H304.497V267H305.497V266ZM303.487 188.615L302.78 189.322L303.487 188.615ZM290.02 187.208L289.872 186.219L290.02 187.208ZM282.583 188.615L282.779 189.596L282.796 189.592L282.812 189.588L282.583 188.615ZM274.342 190.625L274.067 189.663L273.342 189.871V190.625H274.342ZM274.342 266V267H275.342V266H274.342ZM239.167 266H238.167V267H239.167V266ZM239.167 159.47V158.47H238.167V159.47H239.167ZM270.322 159.47L271.303 159.274L271.142 158.47H270.322V159.47ZM272.332 169.52L271.352 169.716L271.642 171.166L272.879 170.357L272.332 169.52ZM283.588 163.49L283.199 162.569L283.191 162.572L283.588 163.49ZM295.246 159.47L295.517 160.433L295.531 160.429L295.544 160.424L295.246 159.47ZM325.597 160.877L325.104 161.747L325.116 161.754L325.597 160.877ZM335.647 169.52L334.84 170.11L335.41 170.89L336.21 170.347L335.647 169.52ZM346.903 163.49L347.29 164.412L347.293 164.411L346.903 163.49ZM359.164 159.47L359.413 160.438L359.423 160.436L359.432 160.434L359.164 159.47ZM398.761 165.701L398.054 166.408L398.761 165.701ZM407.002 266V267H408.002V266H407.002ZM371.827 266H370.827V267H371.827V266ZM363.787 185.605C361.451 185.605 358.922 185.811 356.202 186.219L356.499 188.197C359.138 187.801 361.567 187.605 363.787 187.605V185.605ZM356.202 186.219C353.499 186.625 350.993 187.098 348.684 187.642L349.142 189.588C351.39 189.06 353.842 188.595 356.499 188.197L356.202 186.219ZM348.717 187.634C346.009 188.176 343.236 188.853 340.397 189.663L340.947 191.587C343.737 190.789 346.458 190.126 349.109 189.596L348.717 187.634ZM339.672 190.625V266H341.672V190.625H339.672ZM340.672 265H305.497V267H340.672V265ZM306.497 266V193.64H304.497V266H306.497ZM306.497 193.64C306.497 191.383 305.734 189.448 304.194 187.908L302.78 189.322C303.92 190.462 304.497 191.877 304.497 193.64H306.497ZM304.194 187.908C302.655 186.368 300.72 185.605 298.462 185.605V187.605C300.225 187.605 301.64 188.182 302.78 189.322L304.194 187.908ZM298.462 185.605H297.457V187.605H298.462V185.605ZM297.457 185.605C295.121 185.605 292.592 185.811 289.872 186.219L290.169 188.197C292.808 187.801 295.237 187.605 297.457 187.605V185.605ZM289.872 186.219C287.169 186.625 284.663 187.098 282.354 187.642L282.812 189.588C285.06 189.06 287.512 188.595 290.169 188.197L289.872 186.219ZM282.387 187.634C279.679 188.176 276.906 188.853 274.067 189.663L274.617 191.587C277.407 190.789 280.128 190.126 282.779 189.596L282.387 187.634ZM273.342 190.625V266H275.342V190.625H273.342ZM274.342 265H239.167V267H274.342V265ZM240.167 266V159.47H238.167V266H240.167ZM239.167 160.47H270.322V158.47H239.167V160.47ZM269.342 159.666L271.352 169.716L273.313 169.324L271.303 159.274L269.342 159.666ZM272.879 170.357C276.314 168.112 280.015 166.128 283.986 164.408L283.191 162.572C279.121 164.336 275.319 166.372 271.785 168.683L272.879 170.357ZM283.978 164.411C287.417 162.956 291.263 161.629 295.517 160.433L294.975 158.507C290.654 159.723 286.727 161.076 283.199 162.569L283.978 164.411ZM295.544 160.424C299.735 159.115 304.056 158.46 308.512 158.46V156.46C303.856 156.46 299.334 157.145 294.948 158.516L295.544 160.424ZM308.512 158.46H310.522V156.46H308.512V158.46ZM310.522 158.46C316.431 158.46 321.274 159.576 325.104 161.747L326.09 160.007C321.881 157.622 316.674 156.46 310.522 156.46V158.46ZM325.116 161.754C329.155 163.968 332.388 166.756 334.84 170.11L336.455 168.93C333.814 165.316 330.348 162.342 326.078 160L325.116 161.754ZM336.21 170.347C339.499 168.11 343.191 166.131 347.29 164.412L346.516 162.568C342.308 164.333 338.496 166.374 335.085 168.693L336.21 170.347ZM347.293 164.411C350.721 162.961 354.759 161.635 359.413 160.438L358.915 158.501C354.19 159.717 350.054 161.071 346.514 162.569L347.293 164.411ZM359.432 160.434C364.159 159.121 369.294 158.46 374.842 158.46V156.46C369.135 156.46 363.818 157.139 358.897 158.506L359.432 160.434ZM374.842 158.46H376.852V156.46H374.842V158.46ZM376.852 158.46C385.748 158.46 392.78 161.134 398.054 166.408L399.468 164.994C393.755 159.28 386.18 156.46 376.852 156.46V158.46ZM398.054 166.408C403.328 171.682 406.002 178.714 406.002 187.61H408.002C408.002 178.282 405.182 170.708 399.468 164.994L398.054 166.408ZM406.002 187.61V266H408.002V187.61H406.002ZM407.002 265H371.827V267H407.002V265ZM372.827 266V193.64H370.827V266H372.827ZM372.827 193.64C372.827 191.383 372.064 189.448 370.524 187.908L369.11 189.322C370.25 190.462 370.827 191.877 370.827 193.64H372.827ZM370.524 187.908C368.984 186.368 367.05 185.605 364.792 185.605V187.605C366.555 187.605 367.97 188.182 369.11 189.322L370.524 187.908ZM364.792 185.605H363.787V187.605H364.792V185.605ZM460.228 238.865H459.228V239.865H460.228V238.865ZM496.408 188.615L497.115 187.908L496.408 188.615ZM468.469 188.615L468.656 189.597L468.671 189.594L468.686 189.591L468.469 188.615ZM460.228 190.625L459.941 189.667L459.228 189.881V190.625H460.228ZM460.228 266V265H459.228V266H460.228ZM460.228 300.17V301.17H461.228V300.17H460.228ZM425.053 300.17H424.053V301.17H425.053V300.17ZM425.053 159.47V158.47H424.053V159.47H425.053ZM456.208 159.47L457.189 159.274L457.028 158.47H456.208V159.47ZM458.218 169.52L457.237 169.716L457.527 171.166L458.765 170.357L458.218 169.52ZM469.474 163.49L469.084 162.569L469.076 162.572L469.474 163.49ZM481.132 159.47L481.403 160.433L481.417 160.429L481.43 160.424L481.132 159.47ZM525.352 165.701L524.645 166.408L525.352 165.701ZM524.95 257.558L525.657 258.265L524.95 257.558ZM460.228 239.865H490.378V237.865H460.228V239.865ZM490.378 239.865C493.212 239.865 495.521 239.156 497.115 237.562C498.709 235.968 499.418 233.659 499.418 230.825H497.418C497.418 233.351 496.787 235.062 495.701 236.148C494.615 237.234 492.904 237.865 490.378 237.865V239.865ZM499.418 230.825V193.64H497.418V230.825H499.418ZM499.418 193.64C499.418 191.383 498.655 189.448 497.115 187.908L495.701 189.322C496.841 190.462 497.418 191.877 497.418 193.64H499.418ZM497.115 187.908C495.575 186.368 493.64 185.605 491.383 185.605V187.605C493.146 187.605 494.561 188.182 495.701 189.322L497.115 187.908ZM491.383 185.605H484.348V187.605H491.383V185.605ZM484.348 185.605C481.75 185.605 479.022 185.81 476.167 186.218L476.449 188.198C479.222 187.802 481.854 187.605 484.348 187.605V185.605ZM476.167 186.218C473.331 186.623 470.692 187.097 468.252 187.639L468.686 189.591C471.069 189.061 473.657 188.597 476.449 188.198L476.167 186.218ZM468.282 187.633C465.435 188.175 462.654 188.853 459.941 189.667L460.515 191.583C463.162 190.789 465.875 190.127 468.656 189.597L468.282 187.633ZM459.228 190.625V238.865H461.228V190.625H459.228ZM459.228 266V300.17H461.228V266H459.228ZM460.228 299.17H425.053V301.17H460.228V299.17ZM426.053 300.17V159.47H424.053V300.17H426.053ZM425.053 160.47H456.208V158.47H425.053V160.47ZM455.227 159.666L457.237 169.716L459.199 169.324L457.189 159.274L455.227 159.666ZM458.765 170.357C462.199 168.112 465.901 166.128 469.872 164.408L469.076 162.572C465.007 164.336 461.205 166.372 457.671 168.683L458.765 170.357ZM469.864 164.411C473.303 162.956 477.148 161.629 481.403 160.433L480.861 158.507C476.54 159.723 472.613 161.076 469.084 162.569L469.864 164.411ZM481.43 160.424C485.62 159.115 489.942 158.46 494.398 158.46V156.46C489.742 156.46 485.22 157.145 480.834 158.516L481.43 160.424ZM494.398 158.46H503.443V156.46H494.398V158.46ZM503.443 158.46C512.339 158.46 519.371 161.134 524.645 166.408L526.059 164.994C520.345 159.28 512.771 156.46 503.443 156.46V158.46ZM524.645 166.408C529.919 171.682 532.593 178.714 532.593 187.61H534.593C534.593 178.282 531.773 170.708 526.059 164.994L524.645 166.408ZM532.593 187.61V233.84H534.593V187.61H532.593ZM532.593 233.84C532.593 243.69 529.775 251.318 524.243 256.851L525.657 258.265C531.648 252.274 534.593 244.09 534.593 233.84H532.593ZM524.243 256.851C518.849 262.245 511.291 265 501.433 265V267C511.675 267 519.795 264.127 525.657 258.265L524.243 256.851ZM501.433 265H460.228V267H501.433V265ZM551.659 125.3V124.3H550.659V125.3H551.659ZM586.834 125.3H587.834V124.3H586.834V125.3ZM605.929 239.87H606.929V238.87H605.929V239.87ZM605.929 266L606.078 266.989L606.929 266.861V266H605.929ZM597.688 267.005L597.594 266.009L597.586 266.01L597.578 266.011L597.688 267.005ZM589.849 267.608L589.802 266.609L589.778 266.61L589.755 266.613L589.849 267.608ZM559.9 259.769L560.607 259.062L559.9 259.769ZM551.659 126.3H586.834V124.3H551.659V126.3ZM585.834 125.3V232.835H587.834V125.3H585.834ZM585.834 232.835C585.834 235.092 586.597 237.027 588.137 238.567L589.552 237.153C588.411 236.013 587.834 234.598 587.834 232.835H585.834ZM588.137 238.567C589.677 240.107 591.612 240.87 593.869 240.87V238.87C592.107 238.87 590.692 238.293 589.552 237.153L588.137 238.567ZM593.869 240.87H605.929V238.87H593.869V240.87ZM604.929 239.87V266H606.929V239.87H604.929ZM605.781 265.011C603.12 265.41 600.39 265.743 597.594 266.009L597.783 268C600.614 267.731 603.379 267.394 606.078 266.989L605.781 265.011ZM597.578 266.011C595.19 266.276 592.598 266.476 589.802 266.609L589.897 268.607C592.729 268.472 595.363 268.27 597.799 267.999L597.578 266.011ZM589.755 266.613C586.969 266.878 584.32 267.01 581.809 267.01V269.01C584.39 269.01 587.102 268.874 589.944 268.603L589.755 266.613ZM581.809 267.01C572.913 267.01 565.882 264.336 560.607 259.062L559.193 260.476C564.907 266.19 572.482 269.01 581.809 269.01V267.01ZM560.607 259.062C555.333 253.788 552.659 246.756 552.659 237.86H550.659C550.659 247.188 553.479 254.762 559.193 260.476L560.607 259.062ZM552.659 237.86V125.3H550.659V237.86H552.659ZM653.133 201.68H652.133V202.68H653.133V201.68ZM687.303 201.68V202.68H688.303V201.68H687.303ZM626.4 166.103L627.107 166.81L626.4 166.103ZM713.835 166.103L713.12 166.802L713.128 166.81L713.136 166.818L713.835 166.103ZM722.478 226.805V227.805H723.478V226.805H722.478ZM653.133 226.805V225.805H652.133V226.805H653.133ZM655.143 239.87L655.85 239.163L655.143 239.87ZM678.861 241.478L678.822 240.479L678.821 240.479L678.861 241.478ZM697.956 240.473L698.024 241.471L698.034 241.47L697.956 240.473ZM718.458 238.865H719.458V237.783L718.38 237.868L718.458 238.865ZM718.458 263.99L718.561 264.985L719.458 264.892V263.99H718.458ZM694.539 266L694.474 265.002L694.462 265.003L694.539 266ZM671.826 267.407L671.875 268.406L671.826 267.407ZM626.199 259.769L625.492 260.476L626.199 259.769ZM661.173 181.585C658.339 181.585 656.03 182.294 654.436 183.888C652.842 185.482 652.133 187.791 652.133 190.625H654.133C654.133 188.099 654.764 186.388 655.85 185.302C656.936 184.216 658.647 183.585 661.173 183.585V181.585ZM652.133 190.625V201.68H654.133V190.625H652.133ZM653.133 202.68H687.303V200.68H653.133V202.68ZM688.303 201.68V190.625H686.303V201.68H688.303ZM688.303 190.625C688.303 187.791 687.594 185.482 686 183.888C684.406 182.294 682.097 181.585 679.263 181.585V183.585C681.789 183.585 683.5 184.216 684.586 185.302C685.672 186.388 686.303 188.099 686.303 190.625H688.303ZM679.263 181.585H661.173V183.585H679.263V181.585ZM618.958 189.62C618.958 179.762 621.713 172.204 627.107 166.81L625.693 165.396C619.831 171.258 616.958 179.378 616.958 189.62H618.958ZM627.107 166.81C632.64 161.277 640.268 158.46 650.118 158.46V156.46C639.868 156.46 631.684 159.405 625.693 165.396L627.107 166.81ZM650.118 158.46H690.318V156.46H650.118V158.46ZM690.318 158.46C700.169 158.46 707.724 161.278 713.12 166.802L714.55 165.404C708.69 159.404 700.566 156.46 690.318 156.46V158.46ZM713.136 166.818C718.66 172.214 721.478 179.769 721.478 189.62H723.478C723.478 179.371 720.534 171.248 714.534 165.388L713.136 166.818ZM721.478 189.62V226.805H723.478V189.62H721.478ZM722.478 225.805H653.133V227.805H722.478V225.805ZM652.133 226.805V234.845H654.133V226.805H652.133ZM652.133 234.845C652.133 237.102 652.896 239.037 654.436 240.577L655.85 239.163C654.71 238.023 654.133 236.608 654.133 234.845H652.133ZM654.436 240.577C655.976 242.117 657.911 242.88 660.168 242.88V240.88C658.405 240.88 656.99 240.303 655.85 239.163L654.436 240.577ZM660.168 242.88C665.945 242.88 672.19 242.746 678.901 242.477L678.821 240.479C672.132 240.746 665.915 240.88 660.168 240.88V242.88ZM678.9 242.477C685.742 242.209 692.117 241.873 698.024 241.471L697.888 239.475C692.003 239.877 685.648 240.211 678.822 240.479L678.9 242.477ZM698.034 241.47C704.868 240.934 711.702 240.398 718.536 239.862L718.38 237.868C711.546 238.404 704.712 238.94 697.878 239.476L698.034 241.47ZM717.458 238.865V263.99H719.458V238.865H717.458ZM718.355 262.995C710.596 263.798 702.636 264.467 694.474 265.002L694.604 266.998C702.79 266.461 710.776 265.79 718.561 264.985L718.355 262.995ZM694.462 265.003C687.505 265.538 679.943 266.007 671.777 266.408L671.875 268.406C680.057 268.003 687.637 267.534 694.616 266.997L694.462 265.003ZM671.777 266.408C663.618 266.809 655.728 267.01 648.108 267.01V269.01C655.763 269.01 663.686 268.809 671.875 268.406L671.777 266.408ZM648.108 267.01C639.212 267.01 632.18 264.336 626.906 259.062L625.492 260.476C631.206 266.19 638.78 269.01 648.108 269.01V267.01ZM626.906 259.062C621.632 253.788 618.958 246.756 618.958 237.86H616.958C616.958 247.188 619.778 254.762 625.492 260.476L626.906 259.062ZM618.958 237.86V189.62H616.958V237.86H618.958ZM800.837 159.47V158.47H800.235L799.953 159.001L800.837 159.47ZM840.032 159.47L840.888 159.987L841.803 158.47H840.032V159.47ZM807.872 212.735L807.016 212.218L806.699 212.743L807.023 213.264L807.872 212.735ZM841.037 266V267H842.837L841.885 265.471L841.037 266ZM801.842 266L800.97 266.49L801.257 267H801.842V266ZM783.752 233.84L784.623 233.35L783.752 231.8L782.88 233.35L783.752 233.84ZM765.662 266V267H766.246L766.533 266.49L765.662 266ZM726.467 266L725.618 265.471L724.666 267H726.467V266ZM759.632 212.735L760.48 213.264L760.805 212.743L760.488 212.218L759.632 212.735ZM727.472 159.47V158.47H725.7L726.615 159.987L727.472 159.47ZM766.667 159.47L767.55 159.001L767.268 158.47H766.667V159.47ZM783.752 191.63L782.868 192.099L783.752 193.761L784.635 192.099L783.752 191.63ZM800.837 160.47H840.032V158.47H800.837V160.47ZM839.175 158.953L807.016 212.218L808.728 213.252L840.888 159.987L839.175 158.953ZM807.023 213.264L840.188 266.529L841.885 265.471L808.72 212.206L807.023 213.264ZM841.037 265H801.842V267H841.037V265ZM802.713 265.51L784.623 233.35L782.88 234.33L800.97 266.49L802.713 265.51ZM782.88 233.35L764.79 265.51L766.533 266.49L784.623 234.33L782.88 233.35ZM765.662 265H726.467V267H765.662V265ZM727.315 266.529L760.48 213.264L758.783 212.206L725.618 265.471L727.315 266.529ZM760.488 212.218L728.328 158.953L726.615 159.987L758.776 213.252L760.488 212.218ZM727.472 160.47H766.667V158.47H727.472V160.47ZM765.783 159.939L782.868 192.099L784.635 191.161L767.55 159.001L765.783 159.939ZM784.635 192.099L801.72 159.939L799.953 159.001L782.868 191.161L784.635 192.099Z" fill="black"/>
</svg>
