<svg width="1519" height="218" viewBox="0 0 1519 218" fill="none" xmlns="http://www.w3.org/2000/svg">
<path d="M150.34 77.89H151.34V74.0576L149.467 77.4014L150.34 77.89ZM115.48 140.14V141.14H116.066L116.353 140.629L115.48 140.14ZM80.62 140.14L79.7475 140.629L80.0339 141.14H80.62V140.14ZM45.76 77.89L46.6325 77.4014L44.76 74.0576V77.89H45.76ZM45.76 175V176H46.76V175H45.76ZM0.940001 175H-0.0599995V176H0.940001V175ZM0.940001 0.699989V-0.300011H-0.0599995V0.699989H0.940001ZM48.25 0.699989L49.1297 0.224472L48.8462 -0.300011H48.25V0.699989ZM98.05 92.83L97.1703 93.3055L98.05 94.933L98.9297 93.3055L98.05 92.83ZM147.85 0.699989V-0.300011H147.254L146.97 0.224472L147.85 0.699989ZM195.16 0.699989H196.16V-0.300011H195.16V0.699989ZM195.16 175V176H196.16V175H195.16ZM150.34 175H149.34V176H150.34V175ZM149.467 77.4014L114.607 139.651L116.353 140.629L151.213 78.3786L149.467 77.4014ZM115.48 139.14H80.62V141.14H115.48V139.14ZM81.4925 139.651L46.6325 77.4014L44.8875 78.3786L79.7475 140.629L81.4925 139.651ZM44.76 77.89V175H46.76V77.89H44.76ZM45.76 174H0.940001V176H45.76V174ZM1.94 175V0.699989H-0.0599995V175H1.94ZM0.940001 1.69999H48.25V-0.300011H0.940001V1.69999ZM47.3703 1.17551L97.1703 93.3055L98.9297 92.3545L49.1297 0.224472L47.3703 1.17551ZM98.9297 93.3055L148.73 1.17551L146.97 0.224472L97.1703 92.3545L98.9297 93.3055ZM147.85 1.69999H195.16V-0.300011H147.85V1.69999ZM194.16 0.699989V175H196.16V0.699989H194.16ZM195.16 174H150.34V176H195.16V174ZM151.34 175V77.89H149.34V175H151.34ZM263.732 95.32H262.732V96.32H263.732V95.32ZM306.062 95.32V96.32H307.062V95.32H306.062ZM230.615 51.247L231.322 51.9541L230.615 51.247ZM338.93 51.247L338.215 51.9457L338.223 51.9542L338.232 51.9624L338.93 51.247ZM349.637 126.445V127.445H350.637V126.445H349.637ZM263.732 126.445V125.445H262.732V126.445H263.732ZM266.222 142.63L266.929 141.923L266.222 142.63ZM295.604 144.622L295.565 143.623L295.564 143.623L295.604 144.622ZM319.259 143.377L319.327 144.375L319.337 144.374L319.259 143.377ZM344.657 141.385H345.657V140.303L344.579 140.388L344.657 141.385ZM344.657 172.51L344.76 173.505L345.657 173.412V172.51H344.657ZM315.026 175L314.961 174.002L314.95 174.003L315.026 175ZM286.889 176.743L286.938 177.742L286.889 176.743ZM230.366 167.281L229.659 167.988L230.366 167.281ZM273.692 70.665C270.218 70.665 267.429 71.5342 265.515 73.4479C263.601 75.3616 262.732 78.1508 262.732 81.625H264.732C264.732 78.4591 265.523 76.2684 266.929 74.8621C268.336 73.4558 270.526 72.665 273.692 72.665V70.665ZM262.732 81.625V95.32H264.732V81.625H262.732ZM263.732 96.32H306.062V94.32H263.732V96.32ZM307.062 95.32V81.625H305.062V95.32H307.062ZM307.062 81.625C307.062 78.1508 306.193 75.3616 304.279 73.4479C302.366 71.5342 299.576 70.665 296.102 70.665V72.665C299.268 72.665 301.459 73.4558 302.865 74.8621C304.271 76.2684 305.062 78.4591 305.062 81.625H307.062ZM296.102 70.665H273.692V72.665H296.102V70.665ZM221.157 80.38C221.157 68.1219 224.584 58.6924 231.322 51.9541L229.908 50.5399C222.702 57.7456 219.157 67.7381 219.157 80.38H221.157ZM231.322 51.9541C238.231 45.0455 247.747 41.54 259.997 41.54V39.54C247.348 39.54 237.276 43.1725 229.908 50.5399L231.322 51.9541ZM259.997 41.54H309.797V39.54H259.997V41.54ZM309.797 41.54C322.049 41.54 331.475 45.0457 338.215 51.9457L339.646 50.5483C332.441 43.1723 322.446 39.54 309.797 39.54V41.54ZM338.232 51.9624C345.132 58.7019 348.637 68.1285 348.637 80.38H350.637C350.637 67.7315 347.005 57.7361 339.629 50.5316L338.232 51.9624ZM348.637 80.38V126.445H350.637V80.38H348.637ZM349.637 125.445H263.732V127.445H349.637V125.445ZM262.732 126.445V136.405H264.732V126.445H262.732ZM262.732 136.405C262.732 139.142 263.655 141.477 265.515 143.337L266.929 141.923C265.469 140.463 264.732 138.648 264.732 136.405H262.732ZM265.515 143.337C267.375 145.197 269.71 146.12 272.447 146.12V144.12C270.205 144.12 268.39 143.383 266.929 141.923L265.515 143.337ZM272.447 146.12C279.601 146.12 287.333 145.954 295.644 145.621L295.564 143.623C287.276 143.954 279.57 144.12 272.447 144.12V146.12ZM295.643 145.621C304.118 145.289 312.012 144.873 319.327 144.375L319.191 142.379C311.898 142.877 304.023 143.291 295.565 143.623L295.643 145.621ZM319.337 144.374C327.803 143.71 336.269 143.046 344.735 142.382L344.579 140.388C336.113 141.052 327.647 141.716 319.181 142.38L319.337 144.374ZM343.657 141.385V172.51H345.657V141.385H343.657ZM344.554 171.515C334.939 172.51 325.075 173.339 314.961 174.002L315.092 175.998C325.23 175.333 335.119 174.502 344.76 173.505L344.554 171.515ZM314.95 174.003C306.328 174.666 296.958 175.247 286.84 175.744L286.938 177.742C297.072 177.243 306.46 176.662 315.103 175.997L314.95 174.003ZM286.84 175.744C276.729 176.241 266.952 176.49 257.507 176.49V178.49C266.987 178.49 276.797 178.241 286.938 177.742L286.84 175.744ZM257.507 176.49C246.435 176.49 237.66 173.16 231.073 166.574L229.659 167.988C236.685 175.014 246.003 178.49 257.507 178.49V176.49ZM231.073 166.574C224.487 159.988 221.157 151.212 221.157 140.14H219.157C219.157 151.644 222.633 160.962 229.659 167.988L231.073 166.574ZM221.157 140.14V80.38H219.157V140.14H221.157ZM422.995 43.03H421.995V44.03H422.995V43.03ZM454.12 43.03H455.12V42.03H454.12V43.03ZM454.12 76.645V77.645H455.12V76.645H454.12ZM422.995 76.645V75.645H421.995V76.645H422.995ZM425.485 140.14L424.778 140.847L425.485 140.14ZM464.08 142.63H465.08V141.63H464.08V142.63ZM464.08 175L464.183 175.995L465.08 175.902V175H464.08ZM448.891 176.245L448.829 175.247L448.817 175.248L448.891 176.245ZM433.702 176.992L433.673 175.992L433.658 175.993L433.643 175.994L433.702 176.992ZM389.629 167.281L390.336 166.574L389.629 167.281ZM379.42 76.645H380.42V75.645H379.42V76.645ZM364.48 76.645H363.48V77.645H364.48V76.645ZM364.48 43.03V42.03H363.48V43.03H364.48ZM379.42 43.03V44.03H380.267L380.406 43.1944L379.42 43.03ZM384.4 13.15V12.15H383.553L383.414 12.9856L384.4 13.15ZM422.995 13.15H423.995V12.15H422.995V13.15ZM422.995 44.03H454.12V42.03H422.995V44.03ZM453.12 43.03V76.645H455.12V43.03H453.12ZM454.12 75.645H422.995V77.645H454.12V75.645ZM421.995 76.645V133.915H423.995V76.645H421.995ZM421.995 133.915C421.995 136.652 422.918 138.987 424.778 140.847L426.192 139.433C424.732 137.973 423.995 136.158 423.995 133.915H421.995ZM424.778 140.847C426.638 142.707 428.973 143.63 431.71 143.63V141.63C429.467 141.63 427.652 140.893 426.192 139.433L424.778 140.847ZM431.71 143.63H464.08V141.63H431.71V143.63ZM463.08 142.63V175H465.08V142.63H463.08ZM463.977 174.005C459.178 174.502 454.128 174.916 448.829 175.247L448.953 177.243C454.278 176.91 459.354 176.494 464.183 175.995L463.977 174.005ZM448.817 175.248C444.353 175.578 439.305 175.827 433.673 175.992L433.731 177.992C439.387 177.825 444.465 177.576 448.965 177.242L448.817 175.248ZM433.643 175.994C428.019 176.325 422.394 176.49 416.77 176.49V178.49C422.434 178.49 428.097 178.323 433.761 177.99L433.643 175.994ZM416.77 176.49C405.698 176.49 396.922 173.16 390.336 166.574L388.922 167.988C395.948 175.014 405.266 178.49 416.77 178.49V176.49ZM390.336 166.574C383.75 159.988 380.42 151.212 380.42 140.14H378.42C378.42 151.644 381.896 160.962 388.922 167.988L390.336 166.574ZM380.42 140.14V76.645H378.42V140.14H380.42ZM379.42 75.645H364.48V77.645H379.42V75.645ZM365.48 76.645V43.03H363.48V76.645H365.48ZM364.48 44.03H379.42V42.03H364.48V44.03ZM380.406 43.1944L385.386 13.3144L383.414 12.9856L378.434 42.8656L380.406 43.1944ZM384.4 14.15H422.995V12.15H384.4V14.15ZM421.995 13.15V43.03H423.995V13.15H421.995ZM487.153 53.737L487.86 54.4441L487.153 53.737ZM596.215 43.03H597.215V42.03H596.215V43.03ZM596.215 76.645V77.645H597.215V76.645H596.215ZM522.76 141.385L522.053 142.092L522.76 141.385ZM550.399 143.377L550.442 144.376L550.399 143.377ZM572.311 142.132L572.384 143.129L572.394 143.129L572.311 142.132ZM596.215 140.14H597.215V139.053L596.132 139.143L596.215 140.14ZM596.215 172.51L596.322 173.504L597.215 173.409V172.51H596.215ZM568.078 175L568.008 174.002L567.997 174.003L568.078 175ZM541.435 176.743L541.384 175.744L541.383 175.744L541.435 176.743ZM486.904 167.281L486.197 167.988L486.904 167.281ZM477.695 82.87C477.695 70.6119 481.122 61.1824 487.86 54.4441L486.446 53.0299C479.241 60.2356 475.695 70.2281 475.695 82.87H477.695ZM487.86 54.4441C494.769 47.5355 504.285 44.03 516.535 44.03V42.03C503.886 42.03 493.814 45.6625 486.446 53.0299L487.86 54.4441ZM516.535 44.03H596.215V42.03H516.535V44.03ZM595.215 43.03V76.645H597.215V43.03H595.215ZM596.215 75.645H530.23V77.645H596.215V75.645ZM530.23 75.645C526.756 75.645 523.967 76.5142 522.053 78.4279C520.14 80.3416 519.27 83.1308 519.27 86.605H521.27C521.27 83.4391 522.061 81.2484 523.467 79.8421C524.874 78.4358 527.065 77.645 530.23 77.645V75.645ZM519.27 86.605V135.16H521.27V86.605H519.27ZM519.27 135.16C519.27 137.897 520.193 140.232 522.053 142.092L523.467 140.678C522.007 139.218 521.27 137.403 521.27 135.16H519.27ZM522.053 142.092C523.913 143.952 526.248 144.875 528.985 144.875V142.875C526.743 142.875 524.928 142.138 523.467 140.678L522.053 142.092ZM528.985 144.875C535.476 144.875 542.628 144.709 550.442 144.376L550.357 142.378C542.566 142.709 535.443 142.875 528.985 142.875V144.875ZM550.442 144.376C558.253 144.044 565.567 143.628 572.384 143.129L572.238 141.135C565.444 141.632 558.15 142.046 550.357 142.378L550.442 144.376ZM572.394 143.129C580.362 142.465 588.33 141.801 596.298 141.137L596.132 139.143C588.164 139.807 580.196 140.471 572.228 141.135L572.394 143.129ZM595.215 140.14V172.51H597.215V140.14H595.215ZM596.109 171.516C586.825 172.51 577.458 173.339 568.008 174.002L568.148 175.998C577.622 175.333 587.014 174.502 596.322 173.504L596.109 171.516ZM567.997 174.003C559.874 174.666 551.003 175.247 541.384 175.744L541.487 177.742C551.123 177.243 560.014 176.662 568.16 175.997L567.997 174.003ZM541.383 175.744C531.937 176.242 522.825 176.49 514.045 176.49V178.49C522.862 178.49 532.01 178.24 541.488 177.742L541.383 175.744ZM514.045 176.49C502.973 176.49 494.198 173.16 487.611 166.574L486.197 167.988C493.223 175.014 502.542 178.49 514.045 178.49V176.49ZM487.611 166.574C481.025 159.988 477.695 151.212 477.695 140.14H475.695C475.695 151.644 479.171 160.962 486.197 167.988L487.611 166.574ZM477.695 140.14V82.87H475.695V140.14H477.695ZM739.84 167.032L740.547 167.739L739.84 167.032ZM624.055 167.032L623.339 167.731L623.348 167.739L623.356 167.747L624.055 167.032ZM624.055 51.247L624.762 51.9541L624.055 51.247ZM739.84 51.247L739.124 51.9457L739.133 51.9542L739.141 51.9624L739.84 51.247ZM749.547 137.65C749.547 149.9 746.041 159.416 739.133 166.325L740.547 167.739C747.914 160.372 751.547 150.3 751.547 137.65H749.547ZM739.133 166.325C732.394 173.063 722.965 176.49 710.707 176.49V178.49C723.349 178.49 733.341 174.945 740.547 167.739L739.133 166.325ZM710.707 176.49H653.437V178.49H710.707V176.49ZM653.437 176.49C641.18 176.49 631.661 173.064 624.753 166.317L623.356 167.747C630.724 174.944 640.794 178.49 653.437 178.49V176.49ZM624.77 166.333C618.023 159.426 614.597 149.907 614.597 137.65H612.597C612.597 150.293 616.142 160.362 623.339 167.731L624.77 166.333ZM614.597 137.65V80.38H612.597V137.65H614.597ZM614.597 80.38C614.597 68.1219 618.024 58.6924 624.762 51.9541L623.348 50.5399C616.142 57.7456 612.597 67.7381 612.597 80.38H614.597ZM624.762 51.9541C631.67 45.0455 641.186 41.54 653.437 41.54V39.54C640.787 39.54 630.715 43.1725 623.348 50.5399L624.762 51.9541ZM653.437 41.54H710.707V39.54H653.437V41.54ZM710.707 41.54C722.958 41.54 732.385 45.0457 739.124 51.9457L740.555 50.5483C733.351 43.1723 723.355 39.54 710.707 39.54V41.54ZM739.141 51.9624C746.041 58.7019 749.547 68.1285 749.547 80.38H751.547C751.547 67.7315 747.914 57.7361 740.538 50.5316L739.141 51.9624ZM749.547 80.38V137.65H751.547V80.38H749.547ZM707.972 84.115C707.972 80.6409 707.103 77.8516 705.189 75.9379C703.275 74.0242 700.486 73.155 697.012 73.155V75.155C700.178 75.155 702.368 75.9458 703.775 77.3521C705.181 78.7584 705.972 80.9491 705.972 84.115H707.972ZM697.012 73.155H667.132V75.155H697.012V73.155ZM667.132 73.155C663.658 73.155 660.868 74.0242 658.955 75.9379C657.041 77.8516 656.172 80.6409 656.172 84.115H658.172C658.172 80.9491 658.963 78.7584 660.369 77.3521C661.775 75.9458 663.966 75.155 667.132 75.155V73.155ZM656.172 84.115V133.915H658.172V84.115H656.172ZM656.172 133.915C656.172 137.389 657.041 140.178 658.955 142.092C660.868 144.006 663.658 144.875 667.132 144.875V142.875C663.966 142.875 661.775 142.084 660.369 140.678C658.963 139.272 658.172 137.081 658.172 133.915H656.172ZM667.132 144.875H697.012V142.875H667.132V144.875ZM697.012 144.875C700.486 144.875 703.275 144.006 705.189 142.092C707.103 140.178 707.972 137.389 707.972 133.915H705.972C705.972 137.081 705.181 139.272 703.775 140.678C702.368 142.084 700.178 142.875 697.012 142.875V144.875ZM707.972 133.915V84.115H705.972V133.915H707.972ZM918.095 77.392L917.946 76.4031L918.095 77.392ZM908.882 79.135L909.078 80.1156L909.094 80.1123L909.111 80.1084L908.882 79.135ZM898.673 81.625L898.398 80.6635L897.673 80.8707V81.625H898.673ZM898.673 175V176H899.673V175H898.673ZM855.098 175H854.098V176H855.098V175ZM852.608 79.135L851.9 79.8421L852.608 79.135ZM835.925 77.392L835.776 76.4031L835.925 77.392ZM826.712 79.135L826.908 80.1156L826.924 80.1123L826.941 80.1084L826.712 79.135ZM816.503 81.625L816.228 80.6635L815.503 80.8707V81.625H816.503ZM816.503 175V176H817.503V175H816.503ZM772.928 175H771.928V176H772.928V175ZM772.928 43.03V42.03H771.928V43.03H772.928ZM811.523 43.03L812.503 42.8339L812.342 42.03H811.523V43.03ZM814.013 55.48L813.032 55.6761L813.322 57.1263L814.56 56.317L814.013 55.48ZM827.957 48.01L827.567 47.089L827.559 47.0924L827.957 48.01ZM842.399 43.03L842.669 43.9926L842.683 43.9888L842.697 43.9845L842.399 43.03ZM879.998 44.773L879.504 45.6431L879.517 45.6498L879.998 44.773ZM892.448 55.48L891.64 56.07L892.211 56.8505L893.01 56.3069L892.448 55.48ZM906.392 48.01L906.778 48.9322L906.781 48.931L906.392 48.01ZM921.581 43.03L921.83 43.9985L921.839 43.9961L921.848 43.9935L921.581 43.03ZM970.634 50.749L969.926 51.4561L970.634 50.749ZM980.843 175V176H981.843V175H980.843ZM937.268 175H936.268V176H937.268V175ZM927.308 75.645C924.428 75.645 921.306 75.899 917.946 76.4031L918.243 78.3809C921.523 77.889 924.543 77.645 927.308 77.645V75.645ZM917.946 76.4031C914.603 76.9045 911.505 77.4904 908.653 78.1616L909.111 80.1084C911.902 79.4516 914.946 78.8755 918.243 78.3809L917.946 76.4031ZM908.685 78.1544C905.337 78.8241 901.908 79.6606 898.398 80.6635L898.947 82.5865C902.409 81.5974 905.786 80.7739 909.078 80.1156L908.685 78.1544ZM897.673 81.625V175H899.673V81.625H897.673ZM898.673 174H855.098V176H898.673V174ZM856.098 175V85.36H854.098V175H856.098ZM856.098 85.36C856.098 82.6226 855.174 80.2877 853.315 78.4279L851.9 79.8421C853.361 81.3023 854.098 83.1174 854.098 85.36H856.098ZM853.315 78.4279C851.455 76.5681 849.12 75.645 846.383 75.645V77.645C848.625 77.645 850.44 78.3819 851.9 79.8421L853.315 78.4279ZM846.383 75.645H845.138V77.645H846.383V75.645ZM845.138 75.645C842.258 75.645 839.136 75.899 835.776 76.4031L836.073 78.3809C839.353 77.889 842.373 77.645 845.138 77.645V75.645ZM835.776 76.4031C832.433 76.9045 829.335 77.4904 826.482 78.1616L826.941 80.1084C829.732 79.4516 832.776 78.8755 836.073 78.3809L835.776 76.4031ZM826.515 78.1544C823.167 78.8241 819.738 79.6606 816.228 80.6635L816.777 82.5865C820.239 81.5974 823.616 80.7739 826.908 80.1156L826.515 78.1544ZM815.503 81.625V175H817.503V81.625H815.503ZM816.503 174H772.928V176H816.503V174ZM773.928 175V43.03H771.928V175H773.928ZM772.928 44.03H811.523V42.03H772.928V44.03ZM810.542 43.2261L813.032 55.6761L814.993 55.2839L812.503 42.8339L810.542 43.2261ZM814.56 56.317C818.826 53.5276 823.424 51.0642 828.354 48.9275L827.559 47.0924C822.53 49.2718 817.831 51.7884 813.465 54.643L814.56 56.317ZM828.346 48.931C832.617 47.1239 837.391 45.4772 842.669 43.9926L842.128 42.0673C836.782 43.5708 831.928 45.2441 827.567 47.089L828.346 48.931ZM842.697 43.9845C847.911 42.3551 853.288 41.54 858.833 41.54V39.54C853.089 39.54 847.51 40.3849 842.1 42.0755L842.697 43.9845ZM858.833 41.54H861.323V39.54H858.833V41.54ZM861.323 41.54C868.671 41.54 874.714 42.9284 879.505 45.643L880.491 43.903C875.321 40.9736 868.914 39.54 861.323 39.54V41.54ZM879.517 45.6498C884.547 48.4083 888.581 51.8836 891.64 56.07L893.255 54.89C890.006 50.4444 885.74 46.7817 880.478 43.8962L879.517 45.6498ZM893.01 56.3069C897.099 53.5264 901.687 51.0672 906.778 48.9322L906.005 47.0878C900.804 49.2688 896.096 51.7896 891.885 54.6531L893.01 56.3069ZM906.781 48.931C911.041 47.1287 916.055 45.4834 921.83 43.9985L921.331 42.0615C915.486 43.5646 910.374 45.2393 906.002 47.089L906.781 48.931ZM921.848 43.9935C927.727 42.3605 934.11 41.54 941.003 41.54V39.54C933.951 39.54 927.386 40.3795 921.313 42.0665L921.848 43.9935ZM941.003 41.54H943.493V39.54H941.003V41.54ZM943.493 41.54C954.565 41.54 963.34 44.8699 969.926 51.4561L971.341 50.0419C964.315 43.0161 954.996 39.54 943.493 39.54V41.54ZM969.926 51.4561C976.513 58.0423 979.843 66.8178 979.843 77.89H981.843C981.843 66.3862 978.366 57.0677 971.341 50.0419L969.926 51.4561ZM979.843 77.89V175H981.843V77.89H979.843ZM980.843 174H937.268V176H980.843V174ZM938.268 175V85.36H936.268V175H938.268ZM938.268 85.36C938.268 82.6226 937.344 80.2877 935.485 78.4279L934.07 79.8421C935.531 81.3023 936.268 83.1174 936.268 85.36H938.268ZM935.485 78.4279C933.625 76.5681 931.29 75.645 928.553 75.645V77.645C930.795 77.645 932.61 78.3819 934.07 79.8421L935.485 78.4279ZM928.553 75.645H927.308V77.645H928.553V75.645ZM1046.78 141.385H1045.78V142.385H1046.78V141.385ZM1091.6 79.135L1092.31 78.4279L1091.6 79.135ZM1056.99 79.135L1057.18 80.1173L1057.19 80.1145L1057.2 80.1112L1056.99 79.135ZM1046.78 81.625L1046.49 80.6672L1045.78 80.881V81.625H1046.78ZM1046.78 175V174H1045.78V175H1046.78ZM1046.78 217.33V218.33H1047.78V217.33H1046.78ZM1003.2 217.33H1002.2V218.33H1003.2V217.33ZM1003.2 43.03V42.03H1002.2V43.03H1003.2ZM1041.8 43.03L1042.78 42.8339L1042.62 42.03H1041.8V43.03ZM1044.29 55.48L1043.31 55.6761L1043.6 57.1263L1044.84 56.317L1044.29 55.48ZM1058.23 48.01L1057.84 47.089L1057.84 47.0924L1058.23 48.01ZM1072.67 43.03L1072.95 43.9926L1072.96 43.9888L1072.97 43.9845L1072.67 43.03ZM1127.45 50.749L1126.75 51.4561L1127.45 50.749ZM1126.96 164.542L1127.66 165.249L1126.96 164.542ZM1046.78 142.385H1084.13V140.385H1046.78V142.385ZM1084.13 142.385C1087.6 142.385 1090.39 141.516 1092.31 139.602C1094.22 137.688 1095.09 134.899 1095.09 131.425H1093.09C1093.09 134.591 1092.3 136.782 1090.89 138.188C1089.49 139.594 1087.29 140.385 1084.13 140.385V142.385ZM1095.09 131.425V85.36H1093.09V131.425H1095.09ZM1095.09 85.36C1095.09 82.6226 1094.17 80.2877 1092.31 78.4279L1090.89 79.8421C1092.35 81.3023 1093.09 83.1174 1093.09 85.36H1095.09ZM1092.31 78.4279C1090.45 76.5681 1088.11 75.645 1085.37 75.645V77.645C1087.62 77.645 1089.43 78.3819 1090.89 79.8421L1092.31 78.4279ZM1085.37 75.645H1076.66V77.645H1085.37V75.645ZM1076.66 75.645C1073.45 75.645 1070.08 75.8981 1066.56 76.402L1066.84 78.3819C1070.28 77.8899 1073.56 77.645 1076.66 77.645V75.645ZM1066.56 76.402C1063.05 76.9031 1059.79 77.4885 1056.77 78.1588L1057.2 80.1112C1060.16 79.4535 1063.38 78.8768 1066.84 78.3819L1066.56 76.402ZM1056.8 78.1526C1053.28 78.823 1049.85 79.661 1046.49 80.6672L1047.07 82.5828C1050.35 81.5969 1053.72 80.775 1057.18 80.1173L1056.8 78.1526ZM1045.78 81.625V141.385H1047.78V81.625H1045.78ZM1045.78 175V217.33H1047.78V175H1045.78ZM1046.78 216.33H1003.2V218.33H1046.78V216.33ZM1004.2 217.33V43.03H1002.2V217.33H1004.2ZM1003.2 44.03H1041.8V42.03H1003.2V44.03ZM1040.82 43.2261L1043.31 55.6761L1045.27 55.2839L1042.78 42.8339L1040.82 43.2261ZM1044.84 56.317C1049.1 53.5276 1053.7 51.0642 1058.63 48.9275L1057.84 47.0924C1052.81 49.2718 1048.11 51.7884 1043.74 54.643L1044.84 56.317ZM1058.62 48.931C1062.89 47.1239 1067.67 45.4772 1072.95 43.9926L1072.4 42.0673C1067.06 43.5708 1062.2 45.2441 1057.84 47.089L1058.62 48.931ZM1072.97 43.9845C1078.19 42.3551 1083.56 41.54 1089.11 41.54V39.54C1083.37 39.54 1077.79 40.3849 1072.38 42.0755L1072.97 43.9845ZM1089.11 41.54H1100.31V39.54H1089.11V41.54ZM1100.31 41.54C1111.39 41.54 1120.16 44.8699 1126.75 51.4561L1128.16 50.0419C1121.14 43.0161 1111.82 39.54 1100.31 39.54V41.54ZM1126.75 51.4561C1133.33 58.0423 1136.66 66.8178 1136.66 77.89H1138.66C1138.66 66.3862 1135.19 57.0677 1128.16 50.0419L1126.75 51.4561ZM1136.66 77.89V135.16H1138.66V77.89H1136.66ZM1136.66 135.16C1136.66 147.41 1133.16 156.926 1126.25 163.835L1127.66 165.249C1135.03 157.882 1138.66 147.81 1138.66 135.16H1136.66ZM1126.25 163.835C1119.51 170.573 1110.08 174 1097.82 174V176C1110.47 176 1120.46 172.455 1127.66 165.249L1126.25 163.835ZM1097.82 174H1046.78V176H1097.82V174ZM1160.04 0.699989V-0.300011H1159.04V0.699989H1160.04ZM1203.62 0.699989H1204.62V-0.300011H1203.62V0.699989ZM1227.27 142.63H1228.27V141.63H1227.27V142.63ZM1227.27 175L1227.42 175.989L1228.27 175.861V175H1227.27ZM1217.07 176.245L1216.97 175.25L1216.96 175.25L1216.96 175.251L1217.07 176.245ZM1207.35 176.992L1207.31 175.993L1207.28 175.994L1207.26 175.997L1207.35 176.992ZM1170.25 167.281L1170.96 166.574L1170.25 167.281ZM1160.04 1.69999H1203.62V-0.300011H1160.04V1.69999ZM1202.62 0.699989V133.915H1204.62V0.699989H1202.62ZM1202.62 133.915C1202.62 136.652 1203.54 138.987 1205.4 140.847L1206.82 139.433C1205.36 137.973 1204.62 136.158 1204.62 133.915H1202.62ZM1205.4 140.847C1207.26 142.707 1209.6 143.63 1212.33 143.63V141.63C1210.09 141.63 1208.28 140.893 1206.82 139.433L1205.4 140.847ZM1212.33 143.63H1227.27V141.63H1212.33V143.63ZM1226.27 142.63V175H1228.27V142.63H1226.27ZM1227.13 174.011C1223.82 174.506 1220.44 174.919 1216.97 175.25L1217.16 177.24C1220.66 176.907 1224.08 176.49 1227.42 175.989L1227.13 174.011ZM1216.96 175.251C1213.99 175.58 1210.78 175.828 1207.31 175.993L1207.4 177.991C1210.91 177.824 1214.16 177.574 1217.18 177.239L1216.96 175.251ZM1207.26 175.997C1203.8 176.326 1200.51 176.49 1197.39 176.49V178.49C1200.58 178.49 1203.94 178.322 1207.45 177.988L1207.26 175.997ZM1197.39 176.49C1186.32 176.49 1177.55 173.16 1170.96 166.574L1169.55 167.988C1176.57 175.014 1185.89 178.49 1197.39 178.49V176.49ZM1170.96 166.574C1164.37 159.988 1161.04 151.212 1161.04 140.14H1159.04C1159.04 151.644 1162.52 160.962 1169.55 167.988L1170.96 166.574ZM1161.04 140.14V0.699989H1159.04V140.14H1161.04ZM1285.75 95.32H1284.75V96.32H1285.75V95.32ZM1328.08 95.32V96.32H1329.08V95.32H1328.08ZM1252.63 51.247L1253.34 51.9541L1252.63 51.247ZM1360.95 51.247L1360.23 51.9457L1360.24 51.9542L1360.25 51.9624L1360.95 51.247ZM1371.66 126.445V127.445H1372.66V126.445H1371.66ZM1285.75 126.445V125.445H1284.75V126.445H1285.75ZM1288.24 142.63L1288.95 141.923L1288.24 142.63ZM1317.62 144.622L1317.58 143.623L1317.58 143.623L1317.62 144.622ZM1341.28 143.377L1341.35 144.375L1341.36 144.374L1341.28 143.377ZM1366.68 141.385H1367.68V140.303L1366.6 140.388L1366.68 141.385ZM1366.68 172.51L1366.78 173.505L1367.68 173.412V172.51H1366.68ZM1337.04 175L1336.98 174.002L1336.97 174.003L1337.04 175ZM1308.91 176.743L1308.96 177.742L1308.91 176.743ZM1252.38 167.281L1251.68 167.988L1252.38 167.281ZM1295.71 70.665C1292.24 70.665 1289.45 71.5342 1287.53 73.4479C1285.62 75.3616 1284.75 78.1508 1284.75 81.625H1286.75C1286.75 78.4591 1287.54 76.2684 1288.95 74.8621C1290.35 73.4558 1292.54 72.665 1295.71 72.665V70.665ZM1284.75 81.625V95.32H1286.75V81.625H1284.75ZM1285.75 96.32H1328.08V94.32H1285.75V96.32ZM1329.08 95.32V81.625H1327.08V95.32H1329.08ZM1329.08 81.625C1329.08 78.1508 1328.21 75.3616 1326.3 73.4479C1324.38 71.5342 1321.59 70.665 1318.12 70.665V72.665C1321.29 72.665 1323.48 73.4558 1324.88 74.8621C1326.29 76.2684 1327.08 78.4591 1327.08 81.625H1329.08ZM1318.12 70.665H1295.71V72.665H1318.12V70.665ZM1243.18 80.38C1243.18 68.1219 1246.6 58.6924 1253.34 51.9541L1251.93 50.5399C1244.72 57.7456 1241.18 67.7381 1241.18 80.38H1243.18ZM1253.34 51.9541C1260.25 45.0455 1269.77 41.54 1282.02 41.54V39.54C1269.37 39.54 1259.29 43.1725 1251.93 50.5399L1253.34 51.9541ZM1282.02 41.54H1331.82V39.54H1282.02V41.54ZM1331.82 41.54C1344.07 41.54 1353.49 45.0457 1360.23 51.9457L1361.66 50.5483C1354.46 43.1723 1344.46 39.54 1331.82 39.54V41.54ZM1360.25 51.9624C1367.15 58.7019 1370.66 68.1285 1370.66 80.38H1372.66C1372.66 67.7315 1369.02 57.7361 1361.65 50.5316L1360.25 51.9624ZM1370.66 80.38V126.445H1372.66V80.38H1370.66ZM1371.66 125.445H1285.75V127.445H1371.66V125.445ZM1284.75 126.445V136.405H1286.75V126.445H1284.75ZM1284.75 136.405C1284.75 139.142 1285.67 141.477 1287.53 143.337L1288.95 141.923C1287.49 140.463 1286.75 138.648 1286.75 136.405H1284.75ZM1287.53 143.337C1289.39 145.197 1291.73 146.12 1294.47 146.12V144.12C1292.22 144.12 1290.41 143.383 1288.95 141.923L1287.53 143.337ZM1294.47 146.12C1301.62 146.12 1309.35 145.954 1317.66 145.621L1317.58 143.623C1309.29 143.954 1301.59 144.12 1294.47 144.12V146.12ZM1317.66 145.621C1326.14 145.289 1334.03 144.873 1341.35 144.375L1341.21 142.379C1333.92 142.877 1326.04 143.291 1317.58 143.623L1317.66 145.621ZM1341.36 144.374C1349.82 143.71 1358.29 143.046 1366.75 142.382L1366.6 140.388C1358.13 141.052 1349.67 141.716 1341.2 142.38L1341.36 144.374ZM1365.68 141.385V172.51H1367.68V141.385H1365.68ZM1366.57 171.515C1356.96 172.51 1347.09 173.339 1336.98 174.002L1337.11 175.998C1347.25 175.333 1357.14 174.502 1366.78 173.505L1366.57 171.515ZM1336.97 174.003C1328.35 174.666 1318.98 175.247 1308.86 175.744L1308.96 177.742C1319.09 177.243 1328.48 176.662 1337.12 175.997L1336.97 174.003ZM1308.86 175.744C1298.75 176.241 1288.97 176.49 1279.53 176.49V178.49C1289.01 178.49 1298.82 178.241 1308.96 177.742L1308.86 175.744ZM1279.53 176.49C1268.45 176.49 1259.68 173.16 1253.09 166.574L1251.68 167.988C1258.7 175.014 1268.02 178.49 1279.53 178.49V176.49ZM1253.09 166.574C1246.51 159.988 1243.18 151.212 1243.18 140.14H1241.18C1241.18 151.644 1244.65 160.962 1251.68 167.988L1253.09 166.574ZM1243.18 140.14V80.38H1241.18V140.14H1243.18ZM1468.73 43.03V42.03H1468.13L1467.84 42.5608L1468.73 43.03ZM1517.28 43.03L1518.14 43.5469L1519.05 42.03H1517.28V43.03ZM1477.44 109.015L1476.59 108.498L1476.27 109.023L1476.59 109.544L1477.44 109.015ZM1518.53 175V176H1520.33L1519.38 174.471L1518.53 175ZM1469.97 175L1469.1 175.49L1469.39 176H1469.97V175ZM1447.56 135.16L1448.43 134.67L1447.56 133.12L1446.69 134.67L1447.56 135.16ZM1425.15 175V176H1425.74L1426.02 175.49L1425.15 175ZM1376.6 175L1375.75 174.471L1374.8 176H1376.6V175ZM1417.68 109.015L1418.53 109.544L1418.85 109.023L1418.54 108.498L1417.68 109.015ZM1377.84 43.03V42.03H1376.07L1376.99 43.5469L1377.84 43.03ZM1426.4 43.03L1427.28 42.5608L1427 42.03H1426.4V43.03ZM1447.56 82.87L1446.68 83.3392L1447.56 85.0015L1448.45 83.3392L1447.56 82.87ZM1468.73 44.03H1517.28V42.03H1468.73V44.03ZM1516.43 42.5131L1476.59 108.498L1478.3 109.532L1518.14 43.5469L1516.43 42.5131ZM1476.59 109.544L1517.68 175.529L1519.38 174.471L1478.29 108.486L1476.59 109.544ZM1518.53 174H1469.97V176H1518.53V174ZM1470.84 174.51L1448.43 134.67L1446.69 135.65L1469.1 175.49L1470.84 174.51ZM1446.69 134.67L1424.28 174.51L1426.02 175.49L1448.43 135.65L1446.69 134.67ZM1425.15 174H1376.6V176H1425.15V174ZM1377.45 175.529L1418.53 109.544L1416.83 108.486L1375.75 174.471L1377.45 175.529ZM1418.54 108.498L1378.7 42.5131L1376.99 43.5469L1416.83 109.532L1418.54 108.498ZM1377.84 44.03H1426.4V42.03H1377.84V44.03ZM1425.51 43.4991L1446.68 83.3392L1448.45 82.4008L1427.28 42.5608L1425.51 43.4991ZM1448.45 83.3392L1469.61 43.4991L1467.84 42.5608L1446.68 82.4008L1448.45 83.3392Z" fill="black"/>
</svg>
