<svg width="1920" height="294" viewBox="0 0 1920 294" fill="none" xmlns="http://www.w3.org/2000/svg">
<path d="M132.68 104.96H133.68V101.128L131.807 104.471L132.68 104.96ZM85.6399 188.96V189.96H86.2261L86.5124 189.449L85.6399 188.96ZM38.5999 188.96L37.7274 189.449L38.0138 189.96H38.5999V188.96ZM-8.44008 104.96L-7.56757 104.471L-9.44008 101.128V104.96H-8.44008ZM-8.44008 236V237H-7.44008V236H-8.44008ZM-68.9201 236H-69.9201V237H-68.9201V236ZM-68.9201 0.799988V-0.200012H-69.9201V0.799988H-68.9201ZM-5.08008 0.799988L-4.20037 0.324471L-4.48388 -0.200012H-5.08008V0.799988ZM62.1199 125.12L61.2402 125.596L62.1199 127.223L62.9996 125.596L62.1199 125.12ZM129.32 0.799988V-0.200012H128.724L128.44 0.324471L129.32 0.799988ZM193.16 0.799988H194.16V-0.200012H193.16V0.799988ZM193.16 236V237H194.16V236H193.16ZM132.68 236H131.68V237H132.68V236ZM131.807 104.471L84.7674 188.471L86.5124 189.449L133.552 105.449L131.807 104.471ZM85.6399 187.96H38.5999V189.96H85.6399V187.96ZM39.4724 188.471L-7.56757 104.471L-9.31258 105.449L37.7274 189.449L39.4724 188.471ZM-9.44008 104.96V236H-7.44008V104.96H-9.44008ZM-8.44008 235H-68.9201V237H-8.44008V235ZM-67.9201 236V0.799988H-69.9201V236H-67.9201ZM-68.9201 1.79999H-5.08008V-0.200012H-68.9201V1.79999ZM-5.95979 1.2755L61.2402 125.596L62.9996 124.644L-4.20037 0.324471L-5.95979 1.2755ZM62.9996 125.596L130.2 1.2755L128.44 0.324471L61.2402 124.644L62.9996 125.596ZM129.32 1.79999H193.16V-0.200012H129.32V1.79999ZM192.16 0.799988V236H194.16V0.799988H192.16ZM193.16 235H132.68V237H193.16V235ZM133.68 236V104.96H131.68V236H133.68ZM285.691 128.48H284.691V129.48H285.691V128.48ZM342.811 128.48V129.48H343.811V128.48H342.811ZM241.003 69.008L241.71 69.7151L241.003 69.008ZM387.163 69.008L386.448 69.7067L386.456 69.7151L386.464 69.7234L387.163 69.008ZM401.611 170.48V171.48H402.611V170.48H401.611ZM285.691 170.48V169.48H284.691V170.48H285.691ZM289.051 192.32L289.758 191.613L289.051 192.32ZM328.699 195.008L328.66 194.009L328.659 194.009L328.699 195.008ZM360.619 193.328L360.687 194.326L360.697 194.325L360.619 193.328ZM394.891 190.64H395.891V189.559L394.813 189.643L394.891 190.64ZM394.891 232.64L394.994 233.635L395.891 233.542V232.64H394.891ZM354.907 236L354.842 235.002L354.83 235.003L354.907 236ZM316.939 238.352L316.988 239.351L316.939 238.352ZM240.667 225.584L239.96 226.291L240.667 225.584ZM299.131 95.56C294.497 95.56 290.838 96.7192 288.344 99.2129C285.85 101.707 284.691 105.366 284.691 110H286.691C286.691 105.674 287.772 102.613 289.758 100.627C291.745 98.6408 294.805 97.56 299.131 97.56V95.56ZM284.691 110V128.48H286.691V110H284.691ZM285.691 129.48H342.811V127.48H285.691V129.48ZM343.811 128.48V110H341.811V128.48H343.811ZM343.811 110C343.811 105.366 342.652 101.707 340.158 99.2129C337.665 96.7192 334.005 95.56 329.371 95.56V97.56C333.697 97.56 336.758 98.6408 338.744 100.627C340.73 102.613 341.811 105.674 341.811 110H343.811ZM329.371 95.56H299.131V97.56H329.371V95.56ZM227.891 108.32C227.891 91.7119 232.536 78.8894 241.71 69.7151L240.296 68.3009C230.654 77.9426 225.891 91.3281 225.891 108.32H227.891ZM241.71 69.7151C251.113 60.3125 264.051 55.56 280.651 55.56V53.56C263.652 53.56 250.157 58.4395 240.296 68.3009L241.71 69.7151ZM280.651 55.56H347.851V53.56H280.651V55.56ZM347.851 55.56C364.453 55.56 377.272 60.3127 386.448 69.7067L387.879 68.3093C378.238 58.4393 364.85 53.56 347.851 53.56V55.56ZM386.464 69.7234C395.858 78.8989 400.611 91.7185 400.611 108.32H402.611C402.611 91.3215 397.732 77.9331 387.862 68.2926L386.464 69.7234ZM400.611 108.32V170.48H402.611V108.32H400.611ZM401.611 169.48H285.691V171.48H401.611V169.48ZM284.691 170.48V183.92H286.691V170.48H284.691ZM284.691 183.92C284.691 187.527 285.904 190.587 288.344 193.027L289.758 191.613C287.718 189.573 286.691 187.033 286.691 183.92H284.691ZM288.344 193.027C290.784 195.467 293.844 196.68 297.451 196.68V194.68C294.339 194.68 291.798 193.653 289.758 191.613L288.344 193.027ZM297.451 196.68C307.098 196.68 317.528 196.456 328.739 196.007L328.659 194.009C317.47 194.456 307.068 194.68 297.451 194.68V196.68ZM328.738 196.007C340.171 195.559 350.82 194.998 360.687 194.326L360.551 192.33C350.706 193.002 340.076 193.561 328.66 194.009L328.738 196.007ZM360.697 194.325C372.121 193.429 383.545 192.533 394.969 191.637L394.813 189.643C383.389 190.539 371.965 191.435 360.541 192.331L360.697 194.325ZM393.891 190.64V232.64H395.891V190.64H393.891ZM394.788 231.645C381.809 232.988 368.494 234.107 354.842 235.002L354.973 236.998C368.649 236.101 381.989 234.98 394.994 233.635L394.788 231.645ZM354.83 235.003C343.193 235.898 330.546 236.682 316.89 237.353L316.988 239.351C330.66 238.678 343.325 237.894 354.984 236.997L354.83 235.003ZM316.89 237.353C303.241 238.024 290.042 238.36 277.291 238.36V240.36C290.077 240.36 303.309 240.024 316.988 239.351L316.89 237.353ZM277.291 238.36C262.275 238.36 250.339 233.841 241.374 224.877L239.96 226.291C249.364 235.695 261.843 240.36 277.291 240.36V238.36ZM241.374 224.877C232.41 215.913 227.891 203.976 227.891 188.96H225.891C225.891 204.408 230.556 216.887 239.96 226.291L241.374 224.877ZM227.891 188.96V108.32H225.891V188.96H227.891ZM500.6 57.92H499.6V58.92H500.6V57.92ZM542.6 57.92H543.6V56.92H542.6V57.92ZM542.6 103.28V104.28H543.6V103.28H542.6ZM500.6 103.28V102.28H499.6V103.28H500.6ZM503.96 188.96L503.253 189.667L503.96 188.96ZM556.04 192.32H557.04V191.32H556.04V192.32ZM556.04 236L556.143 236.995L557.04 236.902V236H556.04ZM535.544 237.68L535.482 236.682L535.47 236.683L535.544 237.68ZM515.048 238.688L515.019 237.688L515.004 237.689L514.989 237.69L515.048 238.688ZM455.576 225.584L456.283 224.877L455.576 225.584ZM441.8 103.28H442.8V102.28H441.8V103.28ZM421.64 103.28H420.64V104.28H421.64V103.28ZM421.64 57.92V56.92H420.64V57.92H421.64ZM441.8 57.92V58.92H442.647L442.786 58.0844L441.8 57.92ZM448.52 17.6V16.6H447.673L447.534 17.4356L448.52 17.6ZM500.6 17.6H501.6V16.6H500.6V17.6ZM500.6 58.92H542.6V56.92H500.6V58.92ZM541.6 57.92V103.28H543.6V57.92H541.6ZM542.6 102.28H500.6V104.28H542.6V102.28ZM499.6 103.28V180.56H501.6V103.28H499.6ZM499.6 180.56C499.6 184.167 500.813 187.227 503.253 189.667L504.667 188.253C502.627 186.213 501.6 183.673 501.6 180.56H499.6ZM503.253 189.667C505.693 192.107 508.753 193.32 512.36 193.32V191.32C509.247 191.32 506.707 190.293 504.667 188.253L503.253 189.667ZM512.36 193.32H556.04V191.32H512.36V193.32ZM555.04 192.32V236H557.04V192.32H555.04ZM555.937 235.005C549.456 235.676 542.637 236.235 535.482 236.682L535.606 238.678C542.786 238.229 549.632 237.668 556.143 236.995L555.937 235.005ZM535.47 236.683C529.44 237.129 522.623 237.465 515.019 237.688L515.077 239.688C522.705 239.463 529.552 239.127 535.618 238.677L535.47 236.683ZM514.989 237.69C507.393 238.137 499.796 238.36 492.2 238.36V240.36C499.836 240.36 507.471 240.135 515.107 239.686L514.989 237.69ZM492.2 238.36C477.184 238.36 465.247 233.841 456.283 224.877L454.869 226.291C464.273 235.695 476.752 240.36 492.2 240.36V238.36ZM456.283 224.877C447.319 215.913 442.8 203.976 442.8 188.96H440.8C440.8 204.408 445.465 216.887 454.869 226.291L456.283 224.877ZM442.8 188.96V103.28H440.8V188.96H442.8ZM441.8 102.28H421.64V104.28H441.8V102.28ZM422.64 103.28V57.92H420.64V103.28H422.64ZM421.64 58.92H441.8V56.92H421.64V58.92ZM442.786 58.0844L449.506 17.7644L447.534 17.4356L440.814 57.7556L442.786 58.0844ZM448.52 18.6H500.6V16.6H448.52V18.6ZM499.6 17.6V57.92H501.6V17.6H499.6ZM587.175 72.368L587.882 73.0751L587.175 72.368ZM734.343 57.92H735.343V56.92H734.343V57.92ZM734.343 103.28V104.28H735.343V103.28H734.343ZM672.519 193.328L672.562 194.327L672.519 193.328ZM702.087 191.648L702.16 192.645L702.17 192.645L702.087 191.648ZM734.343 188.96H735.343V187.873L734.26 187.963L734.343 188.96ZM734.343 232.64L734.45 233.634L735.343 233.539V232.64H734.343ZM696.375 236L696.305 235.002L696.294 235.003L696.375 236ZM660.423 238.352L660.371 237.353L660.37 237.353L660.423 238.352ZM586.839 225.584L586.132 226.291L586.839 225.584ZM574.063 111.68C574.063 95.0719 578.708 82.2494 587.882 73.0751L586.468 71.6609C576.826 81.3026 572.063 94.6881 572.063 111.68H574.063ZM587.882 73.0751C597.285 63.6725 610.223 58.92 626.823 58.92V56.92C609.823 56.92 596.329 61.7995 586.468 71.6609L587.882 73.0751ZM626.823 58.92H734.343V56.92H626.823V58.92ZM733.343 57.92V103.28H735.343V57.92H733.343ZM734.343 102.28H645.303V104.28H734.343V102.28ZM645.303 102.28C640.669 102.28 637.01 103.439 634.516 105.933C632.022 108.427 630.863 112.086 630.863 116.72H632.863C632.863 112.394 633.944 109.333 635.93 107.347C637.917 105.361 640.977 104.28 645.303 104.28V102.28ZM630.863 116.72V182.24H632.863V116.72H630.863ZM630.863 182.24C630.863 185.847 632.076 188.907 634.516 191.347L635.93 189.933C633.89 187.893 632.863 185.353 632.863 182.24H630.863ZM634.516 191.347C636.956 193.787 640.016 195 643.623 195V193C640.51 193 637.97 191.973 635.93 189.933L634.516 191.347ZM643.623 195C652.376 195 662.022 194.776 672.562 194.327L672.477 192.329C661.96 192.776 652.342 193 643.623 193V195ZM672.562 194.327C683.098 193.879 692.965 193.318 702.16 192.645L702.014 190.651C692.842 191.322 682.996 191.881 672.477 192.329L672.562 194.327ZM702.17 192.645C712.922 191.749 723.674 190.853 734.426 189.957L734.26 187.963C723.508 188.859 712.756 189.755 702.004 190.651L702.17 192.645ZM733.343 188.96V232.64H735.343V188.96H733.343ZM734.237 231.646C721.705 232.988 709.061 234.107 696.305 235.002L696.445 236.998C709.225 236.101 721.893 234.98 734.45 233.634L734.237 231.646ZM696.294 235.003C685.329 235.898 673.355 236.682 660.371 237.353L660.475 239.351C673.475 238.678 685.469 237.894 696.456 236.997L696.294 235.003ZM660.37 237.353C647.619 238.025 635.316 238.36 623.463 238.36V240.36C635.354 240.36 647.691 240.023 660.476 239.351L660.37 237.353ZM623.463 238.36C608.447 238.36 596.51 233.841 587.546 224.877L586.132 226.291C595.536 235.695 608.015 240.36 623.463 240.36V238.36ZM587.546 224.877C578.582 215.913 574.063 203.976 574.063 188.96H572.063C572.063 204.408 576.728 216.887 586.132 226.291L587.546 224.877ZM574.063 188.96V111.68H572.063V188.96H574.063ZM928.149 225.248L928.857 225.955L928.149 225.248ZM771.909 225.248L771.194 225.947L771.202 225.955L771.211 225.963L771.909 225.248ZM771.909 69.008L772.617 69.7151L771.909 69.008ZM928.149 69.008L927.434 69.7067L927.442 69.7151L927.451 69.7234L928.149 69.008ZM941.597 185.6C941.597 202.2 936.845 215.138 927.442 224.541L928.857 225.955C938.718 216.094 943.597 202.6 943.597 185.6H941.597ZM927.442 224.541C918.268 233.715 905.446 238.36 888.837 238.36V240.36C905.829 240.36 919.215 235.597 928.857 225.955L927.442 224.541ZM888.837 238.36H811.557V240.36H888.837V238.36ZM811.557 238.36C794.95 238.36 782.01 233.716 772.608 224.533L771.211 225.963C781.073 235.596 794.564 240.36 811.557 240.36V238.36ZM772.625 224.549C763.442 215.148 758.797 202.207 758.797 185.6H756.797C756.797 202.593 761.561 216.084 771.194 225.947L772.625 224.549ZM758.797 185.6V108.32H756.797V185.6H758.797ZM758.797 108.32C758.797 91.7119 763.442 78.8894 772.617 69.7151L771.202 68.3009C761.561 77.9426 756.797 91.3281 756.797 108.32H758.797ZM772.617 69.7151C782.019 60.3125 794.957 55.56 811.557 55.56V53.56C794.558 53.56 781.064 58.4395 771.202 68.3009L772.617 69.7151ZM811.557 55.56H888.837V53.56H811.557V55.56ZM888.837 55.56C905.439 55.56 918.258 60.3127 927.434 69.7067L928.865 68.3092C919.224 58.4393 905.836 53.56 888.837 53.56V55.56ZM927.451 69.7234C936.845 78.8989 941.597 91.7185 941.597 108.32H943.597C943.597 91.3215 938.718 77.9331 928.848 68.2926L927.451 69.7234ZM941.597 108.32V185.6H943.597V108.32H941.597ZM884.797 113.36C884.797 108.726 883.638 105.067 881.145 102.573C878.651 100.079 874.992 98.92 870.357 98.92V100.92C874.683 100.92 877.744 102.001 879.73 103.987C881.717 105.973 882.797 109.034 882.797 113.36H884.797ZM870.357 98.92H830.037V100.92H870.357V98.92ZM830.037 98.92C825.403 98.92 821.744 100.079 819.25 102.573C816.757 105.067 815.597 108.726 815.597 113.36H817.597C817.597 109.034 818.678 105.973 820.665 103.987C822.651 102.001 825.712 100.92 830.037 100.92V98.92ZM815.597 113.36V180.56H817.597V113.36H815.597ZM815.597 180.56C815.597 185.194 816.757 188.853 819.25 191.347C821.744 193.841 825.403 195 830.037 195V193C825.712 193 822.651 191.919 820.665 189.933C818.678 187.947 817.597 184.886 817.597 180.56H815.597ZM830.037 195H870.357V193H830.037V195ZM870.357 195C874.992 195 878.651 193.841 881.145 191.347C883.638 188.853 884.797 185.194 884.797 180.56H882.797C882.797 184.886 881.717 187.947 879.73 189.933C877.744 191.919 874.683 193 870.357 193V195ZM884.797 180.56V113.36H882.797V180.56H884.797ZM1168.69 104.288L1168.54 103.299L1168.69 104.288ZM1156.25 106.64L1156.45 107.621L1156.47 107.617L1156.48 107.613L1156.25 106.64ZM1142.48 110L1142.2 109.038L1141.48 109.246V110H1142.48ZM1142.48 236V237H1143.48V236H1142.48ZM1083.68 236H1082.68V237H1083.68V236ZM1080.32 106.64L1079.61 107.347L1080.32 106.64ZM1057.81 104.288L1057.66 103.299L1057.81 104.288ZM1045.37 106.64L1045.57 107.621L1045.59 107.617L1045.6 107.613L1045.37 106.64ZM1031.6 110L1031.32 109.038L1030.6 109.246V110H1031.6ZM1031.6 236V237H1032.6V236H1031.6ZM972.798 236H971.798V237H972.798V236ZM972.798 57.92V56.92H971.798V57.92H972.798ZM1024.88 57.92L1025.86 57.7239L1025.7 56.92H1024.88V57.92ZM1028.24 74.72L1027.26 74.9161L1027.55 76.3663L1028.79 75.557L1028.24 74.72ZM1047.05 64.64L1046.66 63.719L1046.66 63.7224L1047.05 64.64ZM1066.54 57.92L1066.81 58.8826L1066.83 58.8788L1066.84 58.8745L1066.54 57.92ZM1117.28 60.272L1116.79 61.1421L1116.8 61.1488L1117.28 60.272ZM1134.08 74.72L1133.27 75.31L1133.84 76.0905L1134.64 75.5469L1134.08 74.72ZM1152.89 64.64L1153.28 65.5622L1153.28 65.5609L1152.89 64.64ZM1173.39 57.92L1173.64 58.8885L1173.65 58.8861L1173.66 58.8835L1173.39 57.92ZM1239.58 68.336L1238.88 69.0431L1239.58 68.336ZM1253.36 236V237H1254.36V236H1253.36ZM1194.56 236H1193.56V237H1194.56V236ZM1181.12 102.28C1177.25 102.28 1173.06 102.621 1168.54 103.299L1168.83 105.277C1173.27 104.611 1177.37 104.28 1181.12 104.28V102.28ZM1168.54 103.299C1164.03 103.975 1159.86 104.763 1156.03 105.667L1156.48 107.613C1160.26 106.725 1164.38 105.945 1168.83 105.277L1168.54 103.299ZM1156.06 105.659C1151.55 106.561 1146.93 107.688 1142.2 109.038L1142.75 110.962C1147.43 109.624 1152 108.511 1156.45 107.621L1156.06 105.659ZM1141.48 110V236H1143.48V110H1141.48ZM1142.48 235H1083.68V237H1142.48V235ZM1084.68 236V115.04H1082.68V236H1084.68ZM1084.68 115.04C1084.68 111.433 1083.46 108.373 1081.03 105.933L1079.61 107.347C1081.65 109.387 1082.68 111.927 1082.68 115.04H1084.68ZM1081.03 105.933C1078.59 103.493 1075.53 102.28 1071.92 102.28V104.28C1075.03 104.28 1077.57 105.307 1079.61 107.347L1081.03 105.933ZM1071.92 102.28H1070.24V104.28H1071.92V102.28ZM1070.24 102.28C1066.37 102.28 1062.18 102.621 1057.66 103.299L1057.95 105.277C1062.39 104.611 1066.49 104.28 1070.24 104.28V102.28ZM1057.66 103.299C1053.15 103.975 1048.98 104.763 1045.15 105.667L1045.6 107.613C1049.38 106.725 1053.5 105.945 1057.95 105.277L1057.66 103.299ZM1045.18 105.659C1040.67 106.561 1036.05 107.688 1031.32 109.038L1031.87 110.962C1036.55 109.624 1041.12 108.511 1045.57 107.621L1045.18 105.659ZM1030.6 110V236H1032.6V110H1030.6ZM1031.6 235H972.798V237H1031.6V235ZM973.798 236V57.92H971.798V236H973.798ZM972.798 58.92H1024.88V56.92H972.798V58.92ZM1023.9 58.1161L1027.26 74.9161L1029.22 74.5239L1025.86 57.7239L1023.9 58.1161ZM1028.79 75.557C1034.56 71.7816 1040.78 68.4482 1047.45 65.5575L1046.66 63.7224C1039.89 66.6558 1033.56 70.0424 1027.69 73.883L1028.79 75.557ZM1047.44 65.5609C1053.22 63.1159 1059.68 60.8892 1066.81 58.8826L1066.27 56.9573C1059.07 58.9828 1052.53 61.2361 1046.66 63.719L1047.44 65.5609ZM1066.84 58.8745C1073.91 56.6651 1081.2 55.56 1088.72 55.56V53.56C1081 53.56 1073.51 54.6949 1066.24 56.9655L1066.84 58.8745ZM1088.72 55.56H1092.08V53.56H1088.72V55.56ZM1092.08 55.56C1102.04 55.56 1110.25 57.4413 1116.79 61.142L1117.77 59.402C1110.86 55.4866 1102.28 53.56 1092.08 53.56V55.56ZM1116.8 61.1488C1123.63 64.8933 1129.11 69.6156 1133.27 75.31L1134.89 74.13C1130.53 68.1764 1124.82 63.2667 1117.76 59.3952L1116.8 61.1488ZM1134.64 75.5469C1140.18 71.7804 1146.39 68.4512 1153.28 65.5622L1152.51 63.7178C1145.51 66.6528 1139.18 70.0436 1133.52 73.8931L1134.64 75.5469ZM1153.28 65.5609C1159.05 63.1207 1165.83 60.8954 1173.64 58.8885L1173.14 56.9515C1165.27 58.9766 1158.38 61.2312 1152.5 63.719L1153.28 65.5609ZM1173.66 58.8835C1181.62 56.6705 1190.27 55.56 1199.6 55.56V53.56C1190.11 53.56 1181.28 54.6895 1173.12 56.9565L1173.66 58.8835ZM1199.6 55.56H1202.96V53.56H1199.6V55.56ZM1202.96 55.56C1217.97 55.56 1229.91 60.0789 1238.88 69.0431L1240.29 67.6289C1230.89 58.2251 1218.41 53.56 1202.96 53.56V55.56ZM1238.88 69.0431C1247.84 78.0073 1252.36 89.9438 1252.36 104.96H1254.36C1254.36 89.5122 1249.69 77.0327 1240.29 67.6289L1238.88 69.0431ZM1252.36 104.96V236H1254.36V104.96H1252.36ZM1253.36 235H1194.56V237H1253.36V235ZM1195.56 236V115.04H1193.56V236H1195.56ZM1195.56 115.04C1195.56 111.433 1194.34 108.373 1191.91 105.933L1190.49 107.347C1192.53 109.387 1193.56 111.927 1193.56 115.04H1195.56ZM1191.91 105.933C1189.47 103.493 1186.41 102.28 1182.8 102.28V104.28C1185.91 104.28 1188.45 105.307 1190.49 107.347L1191.91 105.933ZM1182.8 102.28H1181.12V104.28H1182.8V102.28ZM1342.33 190.64H1341.33V191.64H1342.33V190.64ZM1402.81 106.64L1403.52 105.933L1402.81 106.64ZM1356.11 106.64L1356.3 107.622L1356.31 107.619L1356.33 107.616L1356.11 106.64ZM1342.33 110L1342.05 109.042L1341.33 109.256V110H1342.33ZM1342.33 236V235H1341.33V236H1342.33ZM1342.33 293.12V294.12H1343.33V293.12H1342.33ZM1283.53 293.12H1282.53V294.12H1283.53V293.12ZM1283.53 57.92V56.92H1282.53V57.92H1283.53ZM1335.61 57.92L1336.59 57.7239L1336.43 56.92H1335.61V57.92ZM1338.97 74.72L1337.99 74.9161L1338.28 76.3663L1339.52 75.557L1338.97 74.72ZM1357.79 64.64L1357.4 63.719L1357.39 63.7224L1357.79 64.64ZM1377.28 57.92L1377.55 58.8826L1377.56 58.8788L1377.57 58.8745L1377.28 57.92ZM1451.2 68.336L1450.49 69.0431L1451.2 68.336ZM1450.52 221.888L1451.23 222.595L1450.52 221.888ZM1342.33 191.64H1392.73V189.64H1342.33V191.64ZM1392.73 191.64C1397.37 191.64 1401.03 190.481 1403.52 187.987C1406.01 185.493 1407.17 181.834 1407.17 177.2H1405.17C1405.17 181.526 1404.09 184.587 1402.11 186.573C1400.12 188.559 1397.06 189.64 1392.73 189.64V191.64ZM1407.17 177.2V115.04H1405.17V177.2H1407.17ZM1407.17 115.04C1407.17 111.433 1405.96 108.373 1403.52 105.933L1402.11 107.347C1404.15 109.387 1405.17 111.927 1405.17 115.04H1407.17ZM1403.52 105.933C1401.08 103.493 1398.02 102.28 1394.41 102.28V104.28C1397.53 104.28 1400.07 105.307 1402.11 107.347L1403.52 105.933ZM1394.41 102.28H1382.65V104.28H1394.41V102.28ZM1382.65 102.28C1378.34 102.28 1373.82 102.62 1369.07 103.298L1369.35 105.278C1374.02 104.612 1378.45 104.28 1382.65 104.28V102.28ZM1369.07 103.298C1364.35 103.973 1359.95 104.762 1355.89 105.664L1356.33 107.616C1360.33 106.726 1364.67 105.947 1369.35 105.278L1369.07 103.298ZM1355.92 105.658C1351.18 106.56 1346.56 107.688 1342.05 109.042L1342.62 110.958C1347.07 109.624 1351.62 108.512 1356.3 107.622L1355.92 105.658ZM1341.33 110V190.64H1343.33V110H1341.33ZM1341.33 236V293.12H1343.33V236H1341.33ZM1342.33 292.12H1283.53V294.12H1342.33V292.12ZM1284.53 293.12V57.92H1282.53V293.12H1284.53ZM1283.53 58.92H1335.61V56.92H1283.53V58.92ZM1334.63 58.1161L1337.99 74.9161L1339.95 74.5239L1336.59 57.7239L1334.63 58.1161ZM1339.52 75.557C1345.29 71.7816 1351.52 68.4482 1358.19 65.5575L1357.39 63.7224C1350.62 66.6558 1344.3 70.0424 1338.43 73.883L1339.52 75.557ZM1358.18 65.5609C1363.96 63.1159 1370.41 60.8892 1377.55 58.8826L1377.01 56.9573C1369.8 58.9828 1363.27 61.2361 1357.4 63.719L1358.18 65.5609ZM1377.57 58.8745C1384.64 56.6651 1391.94 55.56 1399.45 55.56V53.56C1391.74 53.56 1384.24 54.6949 1376.98 56.9655L1377.57 58.8745ZM1399.45 55.56H1414.57V53.56H1399.45V55.56ZM1414.57 55.56C1429.59 55.56 1441.53 60.0789 1450.49 69.0431L1451.9 67.6289C1442.5 58.2251 1430.02 53.56 1414.57 53.56V55.56ZM1450.49 69.0431C1459.45 78.0073 1463.97 89.9438 1463.97 104.96H1465.97C1465.97 89.5122 1461.31 77.0327 1451.9 67.6289L1450.49 69.0431ZM1463.97 104.96V182.24H1465.97V104.96H1463.97ZM1463.97 182.24C1463.97 198.84 1459.22 211.778 1449.82 221.181L1451.23 222.595C1461.09 212.734 1465.97 199.24 1465.97 182.24H1463.97ZM1449.82 221.181C1440.64 230.355 1427.82 235 1411.21 235V237C1428.2 237 1441.59 232.237 1451.23 222.595L1449.82 221.181ZM1411.21 235H1342.33V237H1411.21V235ZM1495.17 0.799988V-0.200012H1494.17V0.799988H1495.17ZM1553.97 0.799988H1554.97V-0.200012H1553.97V0.799988ZM1585.89 192.32H1586.89V191.32H1585.89V192.32ZM1585.89 236L1586.04 236.989L1586.89 236.861V236H1585.89ZM1572.12 237.68L1572.02 236.685L1572.01 236.685L1572.01 236.686L1572.12 237.68ZM1559.01 238.688L1558.97 237.689L1558.94 237.69L1558.92 237.693L1559.01 238.688ZM1508.95 225.584L1509.66 224.877L1508.95 225.584ZM1495.17 1.79999H1553.97V-0.200012H1495.17V1.79999ZM1552.97 0.799988V180.56H1554.97V0.799988H1552.97ZM1552.97 180.56C1552.97 184.167 1554.19 187.227 1556.63 189.667L1558.04 188.253C1556 186.213 1554.97 183.673 1554.97 180.56H1552.97ZM1556.63 189.667C1559.07 192.107 1562.13 193.32 1565.73 193.32V191.32C1562.62 191.32 1560.08 190.293 1558.04 188.253L1556.63 189.667ZM1565.73 193.32H1585.89V191.32H1565.73V193.32ZM1584.89 192.32V236H1586.89V192.32H1584.89ZM1585.74 235.011C1581.28 235.68 1576.71 236.238 1572.02 236.685L1572.21 238.676C1576.93 238.226 1581.54 237.664 1586.04 236.989L1585.74 235.011ZM1572.01 236.686C1568 237.131 1563.65 237.466 1558.97 237.689L1559.06 239.687C1563.78 239.462 1568.17 239.125 1572.23 238.674L1572.01 236.686ZM1558.92 237.693C1554.24 238.138 1549.79 238.36 1545.57 238.36V240.36C1549.86 240.36 1554.38 240.134 1559.11 239.684L1558.92 237.693ZM1545.57 238.36C1530.56 238.36 1518.62 233.841 1509.66 224.877L1508.24 226.291C1517.65 235.695 1530.13 240.36 1545.57 240.36V238.36ZM1509.66 224.877C1500.69 215.913 1496.17 203.976 1496.17 188.96H1494.17C1494.17 204.408 1498.84 216.887 1508.24 226.291L1509.66 224.877ZM1496.17 188.96V0.799988H1494.17V188.96H1496.17ZM1664.8 128.48H1663.8V129.48H1664.8V128.48ZM1721.92 128.48V129.48H1722.92V128.48H1721.92ZM1620.11 69.008L1620.82 69.7151L1620.11 69.008ZM1766.27 69.008L1765.56 69.7067L1765.57 69.7151L1765.57 69.7234L1766.27 69.008ZM1780.72 170.48V171.48H1781.72V170.48H1780.72ZM1664.8 170.48V169.48H1663.8V170.48H1664.8ZM1668.16 192.32L1668.87 191.613L1668.16 192.32ZM1707.81 195.008L1707.77 194.009L1707.77 194.009L1707.81 195.008ZM1739.73 193.328L1739.8 194.326L1739.81 194.325L1739.73 193.328ZM1774 190.64H1775V189.559L1773.92 189.643L1774 190.64ZM1774 232.64L1774.1 233.635L1775 233.542V232.64H1774ZM1734.02 236L1733.95 235.002L1733.94 235.003L1734.02 236ZM1696.05 238.352L1696.1 239.351L1696.05 238.352ZM1619.78 225.584L1619.07 226.291L1619.78 225.584ZM1678.24 95.56C1673.61 95.56 1669.95 96.7192 1667.45 99.2129C1664.96 101.707 1663.8 105.366 1663.8 110H1665.8C1665.8 105.674 1666.88 102.613 1668.87 100.627C1670.85 98.6408 1673.91 97.56 1678.24 97.56V95.56ZM1663.8 110V128.48H1665.8V110H1663.8ZM1664.8 129.48H1721.92V127.48H1664.8V129.48ZM1722.92 128.48V110H1720.92V128.48H1722.92ZM1722.92 110C1722.92 105.366 1721.76 101.707 1719.27 99.2129C1716.77 96.7192 1713.11 95.56 1708.48 95.56V97.56C1712.81 97.56 1715.87 98.6408 1717.85 100.627C1719.84 102.613 1720.92 105.674 1720.92 110H1722.92ZM1708.48 95.56H1678.24V97.56H1708.48V95.56ZM1607 108.32C1607 91.7119 1611.65 78.8894 1620.82 69.7151L1619.41 68.3009C1609.76 77.9426 1605 91.3281 1605 108.32H1607ZM1620.82 69.7151C1630.22 60.3125 1643.16 55.56 1659.76 55.56V53.56C1642.76 53.56 1629.27 58.4395 1619.41 68.3009L1620.82 69.7151ZM1659.76 55.56H1726.96V53.56H1659.76V55.56ZM1726.96 55.56C1743.56 55.56 1756.38 60.3127 1765.56 69.7067L1766.99 68.3093C1757.35 58.4393 1743.96 53.56 1726.96 53.56V55.56ZM1765.57 69.7234C1774.97 78.8989 1779.72 91.7185 1779.72 108.32H1781.72C1781.72 91.3215 1776.84 77.9331 1766.97 68.2926L1765.57 69.7234ZM1779.72 108.32V170.48H1781.72V108.32H1779.72ZM1780.72 169.48H1664.8V171.48H1780.72V169.48ZM1663.8 170.48V183.92H1665.8V170.48H1663.8ZM1663.8 183.92C1663.8 187.527 1665.01 190.587 1667.45 193.027L1668.87 191.613C1666.83 189.573 1665.8 187.033 1665.8 183.92H1663.8ZM1667.45 193.027C1669.89 195.467 1672.95 196.68 1676.56 196.68V194.68C1673.45 194.68 1670.91 193.653 1668.87 191.613L1667.45 193.027ZM1676.56 196.68C1686.21 196.68 1696.64 196.456 1707.85 196.007L1707.77 194.009C1696.58 194.456 1686.18 194.68 1676.56 194.68V196.68ZM1707.85 196.007C1719.28 195.559 1729.93 194.998 1739.8 194.326L1739.66 192.33C1729.82 193.002 1719.19 193.561 1707.77 194.009L1707.85 196.007ZM1739.81 194.325C1751.23 193.429 1762.65 192.533 1774.08 191.637L1773.92 189.643C1762.5 190.539 1751.07 191.435 1739.65 192.331L1739.81 194.325ZM1773 190.64V232.64H1775V190.64H1773ZM1773.9 231.645C1760.92 232.988 1747.6 234.107 1733.95 235.002L1734.08 236.998C1747.76 236.101 1761.1 234.98 1774.1 233.635L1773.9 231.645ZM1733.94 235.003C1722.3 235.898 1709.66 236.682 1696 237.353L1696.1 239.351C1709.77 238.678 1722.43 237.894 1734.09 236.997L1733.94 235.003ZM1696 237.353C1682.35 238.024 1669.15 238.36 1656.4 238.36V240.36C1669.19 240.36 1682.42 240.024 1696.1 239.351L1696 237.353ZM1656.4 238.36C1641.38 238.36 1629.45 233.841 1620.48 224.877L1619.07 226.291C1628.47 235.695 1640.95 240.36 1656.4 240.36V238.36ZM1620.48 224.877C1611.52 215.913 1607 203.976 1607 188.96H1605C1605 204.408 1609.67 216.887 1619.07 226.291L1620.48 224.877ZM1607 188.96V108.32H1605V188.96H1607ZM1911.71 57.92V56.92H1911.11L1910.82 57.4508L1911.71 57.92ZM1977.23 57.92L1978.08 58.4369L1979 56.92H1977.23V57.92ZM1923.47 146.96L1922.61 146.443L1922.3 146.968L1922.62 147.489L1923.47 146.96ZM1978.91 236V237H1980.71L1979.76 235.471L1978.91 236ZM1913.39 236L1912.52 236.49L1912.8 237H1913.39V236ZM1883.15 182.24L1884.02 181.75L1883.15 180.2L1882.28 181.75L1883.15 182.24ZM1852.91 236V237H1853.49L1853.78 236.49L1852.91 236ZM1787.39 236L1786.54 235.471L1785.59 237H1787.39V236ZM1842.83 146.96L1843.68 147.489L1844 146.968L1843.68 146.443L1842.83 146.96ZM1789.07 57.92V56.92H1787.3L1788.21 58.4369L1789.07 57.92ZM1854.59 57.92L1855.47 57.4508L1855.19 56.92H1854.59V57.92ZM1883.15 111.68L1882.26 112.149L1883.15 113.811L1884.03 112.149L1883.15 111.68ZM1911.71 58.92H1977.23V56.92H1911.71V58.92ZM1976.37 57.4031L1922.61 146.443L1924.32 147.477L1978.08 58.4369L1976.37 57.4031ZM1922.62 147.489L1978.06 236.529L1979.76 235.471L1924.32 146.431L1922.62 147.489ZM1978.91 235H1913.39V237H1978.91V235ZM1914.26 235.51L1884.02 181.75L1882.28 182.73L1912.52 236.49L1914.26 235.51ZM1882.28 181.75L1852.04 235.51L1853.78 236.49L1884.02 182.73L1882.28 181.75ZM1852.91 235H1787.39V237H1852.91V235ZM1788.24 236.529L1843.68 147.489L1841.98 146.431L1786.54 235.471L1788.24 236.529ZM1843.68 146.443L1789.92 57.4031L1788.21 58.4369L1841.97 147.477L1843.68 146.443ZM1789.07 58.92H1854.59V56.92H1789.07V58.92ZM1853.7 58.3891L1882.26 112.149L1884.03 111.211L1855.47 57.4508L1853.7 58.3891ZM1884.03 112.149L1912.59 58.3891L1910.82 57.4508L1882.26 111.211L1884.03 112.149Z" fill="black"/>
</svg>
